<svg width="1116" height="120" viewBox="0 0 1116 120" fill="none" xmlns="http://www.w3.org/2000/svg">
    <!-- Vòng tròn nhỏ -->
    <g transform="translate(0,0)">
        <circle cx="10.7981" cy="10.9174" r="10.7981" fill="#D80027"/>
        <circle cx="10.7975" cy="10.9173" r="5.39903" fill="white"/>
    </g>

    <!-- Đường cong -->
    <g transform="translate(17, 7)">
        <path d="M1090.74 93.1672C1053.55 93.1672 1035.21 71.2265 1015.79 48.0054C996.178 24.5564 975.915 0.318115 935.441 0.318115C894.968 0.318115 874.688 24.5564 855.093 48.0054C835.674 71.2265 817.328 93.1672 780.144 93.1672C742.96 93.1672 724.614 71.2265 705.196 48.0054C685.583 24.5564 665.32 0.318115 624.847 0.318115C624.847 0.318115 624.812 0.318115 624.794 0.318115C624.777 0.318115 624.759 0.318115 624.742 0.318115C584.268 0.318115 563.988 24.5564 544.393 48.0054C524.974 71.2265 506.629 93.1497 469.497 93.1672C432.348 93.1497 414.02 71.2265 394.601 48.0054C374.972 24.5739 354.691 0.335654 314.218 0.335654C314.182 0.335654 314.165 0.335654 314.13 0.335654C273.656 0.335654 253.393 24.5739 233.781 48.023C214.362 71.244 196.017 93.1848 158.833 93.1848C121.649 93.1848 103.303 71.244 83.884 48.023C64.2718 24.5739 43.9912 0.335654 3.51789 0.335654C1.58305 0.335654 0 1.91412 0 3.84336C0 5.77261 1.58305 7.35108 3.51789 7.35108C40.702 7.35108 59.0477 29.2918 78.4665 52.5129C98.0787 75.9619 118.342 100.2 158.815 100.2C199.288 100.2 219.569 75.9619 239.164 52.5129C258.582 29.2918 276.928 7.35108 314.112 7.35108C351.296 7.35108 369.642 29.2918 389.061 52.5129C408.673 75.9619 428.936 100.2 469.409 100.2C469.409 100.2 469.444 100.2 469.462 100.2C469.48 100.2 469.497 100.2 469.515 100.2C509.988 100.2 530.269 75.9619 549.863 52.5129C569.282 29.2918 587.61 7.36861 624.759 7.35108C661.908 7.36861 680.254 29.2918 699.673 52.5129C719.285 75.9619 739.548 100.2 780.021 100.2C780.039 100.2 780.074 100.2 780.091 100.2C820.565 100.2 840.845 75.9619 860.44 52.5129C879.859 29.2918 898.204 7.35108 935.389 7.35108C972.573 7.35108 990.918 29.2918 1010.34 52.5129C1029.95 75.9619 1050.21 100.2 1090.69 100.2C1092.62 100.2 1094.2 98.6217 1094.2 96.6925C1094.2 94.7632 1092.62 93.1848 1090.69 93.1848L1090.74 93.1672Z"
              fill="url(#paint0_linear_616_93073)"/>
    </g>
    <!-- Vòng tròn nhỏ cuối -->
    <g transform="translate(1094, 92)">
        <circle cx="11.2043" cy="11.5005" r="10.7981" fill="#008000"/>
        <circle cx="11.2037" cy="11.5003" r="5.39903" fill="white"/>
    </g>
    <defs>
        <linearGradient id="paint0_linear_616_93073" x1="0" y1="50.2591" x2="1094.2" y2="50.2591"
                        gradientUnits="userSpaceOnUse">
            <stop stop-color="#D80027"/>
            <stop offset="0.2" stop-color="#FF6C3A"/>
            <stop offset="0.395" stop-color="#F1C32A"/>
            <stop offset="0.6" stop-color="#005BBF"/>
            <stop offset="0.8" stop-color="#00B1A7"/>
            <stop offset="1" stop-color="#008000"/>
        </linearGradient>
    </defs>

</svg>