<svg xmlns="http://www.w3.org/2000/svg" version="1.2" viewBox="0 0 1570 714"><path fill="#d0271d" fill-rule="evenodd" d="M1570 280.5c0 36.8-7.3 73.3-21.3 107.3-14.1 34-34.8 64.9-60.8 91-26 26-57 46.7-91 60.8-34 14.1-70.4 21.3-107.3 21.3v152.6h-242.2V594.6c-16.6 18.9-35.2 35.9-55.5 50.8-20.2 14.9-42 27.5-65 37.8-22.9 10.2-46.9 17.9-71.5 23-24.7 5.1-49.7 7.6-74.9 7.3H551.7V560.9H372.3l-89.7 152.6H0L414.9 0h367.9c25 .2 50 3 74.5 8.3 24.5 5.3 48.4 13.2 71.3 23.4s44.7 22.7 65 37.4c20.4 14.6 39.1 31.3 56.1 49.8V0h242.2c36.6.2 72.9 7.7 106.7 21.9 33.7 14.2 64.4 34.9 90.2 60.9 25.8 26 46.3 56.9 60.2 90.8 13.9 33.9 21.1 70.2 21 106.9zM782.8 623.8c25.2 0 50.3-3.5 74.5-10.4 24.2-7 47.3-17.4 68.7-30.8 21.3-13.4 40.6-29.8 57.4-48.7 16.7-18.8 30.7-39.9 41.6-62.7h114.4v152.6h62.8V471.2h89.7c25 0 49.8-4.9 73-14.5 23.1-9.5 44.1-23.6 61.9-41.3 17.7-17.7 31.7-38.8 41.3-61.9 9.5-23.2 14.5-48 14.4-73-.2-25.2-5.4-50.1-15.2-73.3-9.8-23.1-24-44.2-41.9-61.9-17.9-17.7-39.1-31.7-62.4-41.2-23.3-9.5-48.2-14.4-73.4-14.3h-152.5v228.8h-89.7c-4.8-31.5-15.1-61.8-30.4-89.7a268.7 268.7 0 0 0-59.7-73.6c-24-20.8-51.6-37.2-81.4-48.4-29.8-11.2-61.3-17-93.1-17.1h-314L157 623.8h74l89.7-152.6h320.8v152.6zm204.1-267c-.1 26.7-5.5 53.3-15.8 78-10.2 24.7-25.3 47.2-44.2 66.1-19 19-41.4 34-66.1 44.3-24.8 10.3-51.3 15.6-78 15.7h-78.5v-89.7h78.5c30.3 0 59.4-12.1 80.8-33.5 21.5-21.5 33.5-50.6 33.5-80.9 0-30.4-12-59.5-33.5-81-21.4-21.4-50.5-33.5-80.8-33.5h-78.5v-89.7h78.5c26.7.1 53.2 5.4 78 15.7 24.7 10.3 47.1 25.3 66.1 44.3 18.9 18.9 34 41.4 44.2 66.1 10.3 24.8 15.7 51.3 15.8 78.1zM641.5 152.6v255.8H358.9l51.5-89.8h141.3v-166zm696.9 10.1c15.5 6.5 29.5 15.9 41.3 27.7 11.9 11.9 21.3 25.9 27.8 41.3 6.5 15.5 9.9 32 10.1 48.8 0 16.8-3.3 33.4-9.8 48.9-6.4 15.5-15.8 29.6-27.7 41.5-11.8 11.9-25.9 21.3-41.4 27.7-15.6 6.5-32.2 9.8-49 9.8H1200v-89.8h89.7c5-.1 9.9-1.2 14.5-3.2 4.5-1.9 8.7-4.8 12.2-8.3 3.5-3.5 6.3-7.6 8.3-12.2 1.9-4.6 3-9.5 3.2-14.4 0-5-1-10-2.9-14.7-1.9-4.6-4.7-8.8-8.2-12.4-3.6-3.5-7.8-6.3-12.4-8.2-4.7-1.9-9.7-2.9-14.7-2.9H1200v-89.7h89.7c16.8.1 33.3 3.6 48.7 10.1z"/></svg>