<svg xmlns="http://www.w3.org/2000/svg" version="1.2" viewBox="0 0 1522 1509"><path fill="#569bbe" d="m984.21 210.75-672.17-.57-103.97 104.98 776.14.41c118.64 0 214.49 94.02 214.49 209.87v983.25h107.61l.33-983.25c0-173.83-144.39-314.69-322.43-314.69Zm537.6 1297.94-.1-983.25C1521.71 235.83 1281.03.07 984.17.07L519.94 0 416 104.99l568.21.13c237.41 0 429.87 188.59 429.87 420.32v983.25h107.73ZM984.21 420.52l-879.94-.2L0 525.24h1.41l-1.41.2.03 458.05c0 267.14 203.76 488.31 468.65 521.23L568 1403.94l-30.39-.17c-237.52 0-430.04-188.65-430.04-420.28V525.27h107.77l-.27 458.22c0 173.65 144.39 314.59 322.54 314.59h135.03l103.8-104.89H537.61c-118.71 0-214.53-93.96-214.53-209.7V525.27h106.66l.1 458.22c.33 57.9 48.33 104.68 107.73 104.68h342.6l103.66-104.58-446.26-.1V525.34l446.6.1v983.25h107.81l-.04-983.25c-.33-58.01-48.36-104.92-107.73-104.92Z"/></svg>