<svg xmlns="http://www.w3.org/2000/svg" version="1.2" viewBox="0 0 1273 1618"><path fill="#efab00" fill-rule="evenodd" d="M1271.73 845.12c.38 3.25.59 6.57.76 9.82.03 3.36-.07 6.75-.35 10.11-.27 3.49-.55 7.02-1.28 10.45-1.59 7.4-2.76 14.98-5.56 22-6.99 17.23-15.22 33.95-23.59 50.55-2.59 5.06-5.91 9.69-9.19 14.29-3.57 5.09-7.33 10.07-11.41 14.74-8.99 10.28-17.81 20.69-27.74 30.07-20.81 19.72-42.08 39.1-64.42 57.16-26.07 21.07-53.11 40.93-80.6 60.14-64.31 44.98-129.8 88.19-194.71 132.24l106.89 63.14c25.51 15.06 50.76 30.66 76.1 45.95 3.7 2.25 7.4 4.61 10.96 7.13 3.63 2.56 7.23 5.23 10.58 8.2 3.84 3.39 7.47 7.16 11.03 10.9 1.84 2.01 3.53 4.19 5.12 6.37 1.59 2.18 3.08 4.5 4.43 6.85 1.35 2.35 2.59 4.81 3.52 7.33.97 2.53 1.73 5.12 2.29 7.72.48 2.66.83 5.4.83 8.13 0 2.8-.28 5.68-.9 8.41-.66 3.01-1.59 5.98-2.84 8.75-1.42 3.15-3.11 6.2-5.15 8.93-2.35 3.25-5.01 6.3-7.92 9.03-3.42 3.25-7.23 6.16-11.06 8.89a172.21 172.21 0 0 1-13.56 8.76c-5.12 3.01-10.27 6.05-15.73 8.37-24.31 10.48-49.07 20.03-73.58 30.03-31.12 12.74-64.18 20.31-96.68 28.86-45.99 12.07-92.29 22.84-138.73 33.01-39.38 8.61-78.87 16.99-118.67 23.25-34.1 5.36-68.47 8.86-102.87 11.56-9.93.79-19.99.24-29.88-1.11-20.19-2.73-40.21-6.75-60.09-11.14-5.54-1.21-10.79-3.53-16.01-5.71-5.26-2.18-10.41-4.53-15.39-7.23-4.91-2.7-9.75-5.61-14.25-8.93-4.49-3.29-8.78-6.89-12.69-10.83-3.9-3.94-7.22-8.41-10.51-12.91-1.69-2.24-3.04-4.77-4.36-7.26a94.324 94.324 0 0 1-3.59-7.86c-1.07-2.76-2.08-5.6-2.84-8.44a83.84 83.84 0 0 1-1.97-9.13c-.52-3.15-.9-6.4-1.07-9.66-.21-3.46-.03-6.92-.1-10.41 0-1.32-.25-2.63-.18-3.95.21-3.87.35-7.78 1.01-11.55 1.1-6.3 2.38-12.56 4.35-18.65 2.73-8.69 5.85-17.27 9.72-25.5 5.08-10.83 10.75-21.52 17.22-31.63 8.23-12.97 17.05-25.6 26.73-37.54 12.1-14.91 24.93-29.34 38.55-42.94 16.77-16.71 33.96-33.08 52.46-47.85 48.41-38.65 98.79-74.81 148.23-112.24l-142.35-80.03c-63.32-35.61-127.39-69.9-191.5-104.08-63.76-34.01-128.07-67.02-192.15-100.52-2.59-1.34-5.15-2.66-7.71-4.01-.24-.14-.52-.35-.79-.41-.18-.07.34.24.55.31 1.62.9 6.57 3.46 4.91 2.63-4.63-2.43-9.44-4.71-14-7.37-10.41-6.09-20.89-12.29-31.02-18.93-5.81-3.81-11.34-8.03-16.7-12.46-5.22-4.29-10.13-8.92-14.94-13.66-2.21-2.22-4.18-4.64-6.12-7.13-1.76-2.28-3.46-4.67-4.91-7.2-1.31-2.32-2.46-4.74-3.32-7.26-.8-2.32-1.52-4.74-1.69-7.2-.32-4.88-.25-9.83.27-14.71.59-5.29 1.73-10.55 3.05-15.7 1.41-5.47 3.18-10.87 5.11-16.2 2.01-5.57 4.08-11.17 6.71-16.47 10.17-20.38 20.58-40.65 31.67-60.55 6.4-11.38 13.32-22.49 20.72-33.25 29.63-42.97 58.43-86.67 90.45-127.98C231.38 428.5 306 337.39 380.96 246.57c18.85-22.91 39.01-44.84 59.82-66.05 39.01-39.8 78.91-78.76 119.54-116.95 9.85-9.28 20.92-17.2 31.74-25.37 6.19-4.63 12.66-8.92 19.19-13.04 6.19-3.88 12.45-7.61 18.99-10.83 5.84-2.87 11.89-5.4 18.11-7.47 5.78-1.94 11.69-3.43 17.67-4.61 5.57-1.1 11.24-1.79 16.91-2.21 5.29-.38 10.69-.28 16.01-.17 3.11.07 6.26.27 9.37.72 4.15.59 8.34 1.21 12.38 2.36 4.88 1.38 9.65 3.21 14.35 5.15 2.7 1.11 5.26 2.53 7.78 3.98 2.7 1.56 5.36 3.29 7.92 5.16 2.77 2.04 5.46 4.15 7.99 6.43 2.8 2.53 5.5 5.16 8.02 7.93 2.8 3.01 5.43 6.15 7.92 9.44 2.73 3.63 5.39 7.37 7.78 11.21 2.66 4.26 5.19 8.62 7.47 13.08 2.52 4.98 4.87 10.03 7.02 15.16 2.38 5.67 4.53 11.45 6.5 17.26 2.21 6.44 4.46 12.91 5.94 19.58 6.54 29.1 13.56 58.17 18.19 87.65 5.95 37.78 10.51 75.81 13.49 113.94 4.25 54.77 6.46 109.71 8.09 164.62 1.07 36.99 0 74.01 0 111.04l194.57 67.61c28.87 10.03 55.95 24.63 83.96 36.95 23.16 10.21 44.67 23.98 66.25 37.23 9.89 6.05 18.88 13.39 27.94 20.59 4.01 3.18 7.67 6.81 11.23 10.48 3.19 3.29 6.26 6.75 8.93 10.45 4.59 6.33 8.95 12.8 12.86 19.55 3.49 6.12 6.78 12.46 9.44 18.99 2.45 6.16 4.22 12.6 5.88 19.03.79 3.15 1.17 6.41 1.52 9.66ZM473.94 408.05c-27.49 28.54-54.49 57.57-81.7 86.39l9.64.25 29.71 2.28 122.71 20.21 131.5 30.27-10.99-118.09c-2.04-22.18-3.84-44.39-6.33-66.54-1.9-17.09-4.32-34.15-6.95-51.17-1.07-6.99-2.39-13.91-4.08-20.73-1.18-4.77-2.77-9.44-4.53-14.01-.62-1.69-1.66-3.25-2.63-4.77-.83-1.32-1.8-2.56-2.83-3.74-.9-1.04-1.91-2.01-2.98-2.87-.9-.76-1.93-1.46-2.97-2.04-.97-.56-2.04-1.04-3.08-1.35-1-.35-2.04-.63-3.08-.66-2.07-.1-4.11-.14-6.12.21-1.93.31-3.73 1.04-5.53 1.76-1.69.69-3.35 1.52-4.91 2.49-2.21 1.39-4.22 3.01-6.26 4.57-2.66 2.04-5.32 4.12-7.81 6.3-7.19 6.26-14.66 12.32-21.37 19.06-36.86 37.03-73.17 74.57-109.41 112.18Zm550.97 479.18c.35-1.14.45-2.39.41-3.67.07-1.21.14-2.42-.06-3.6-.45-2.35-1.04-4.74-1.91-6.95-.93-2.25-2.17-4.43-3.52-6.47-1.39-2.08-2.94-4.12-4.71-5.92-3.35-3.43-6.88-6.64-10.54-9.69-2.6-2.14-5.29-4.15-8.2-5.88-24.72-14.67-49.1-30.03-74.55-43.32-26.07-13.6-53.35-24.88-80.01-37.3l-11.69 112.49c-2.04 19.44-7.12 38.44-11.72 57.4-3.42 14.05-7.71 27.85-12.21 41.55-2.17 6.58-4.87 12.98-7.78 19.28-2.59 5.64-5.56 11.14-8.71 16.47-2.59 4.39-5.39 8.68-8.51 12.73-2.42 3.18-5.08 6.23-7.98 8.99-3.39 3.22-7.13 6.16-10.86 9-2.04 1.56-4.29 2.84-6.5 4.08-2.35 1.32-4.77 2.53-7.23 3.53a63.208 63.208 0 0 1-8.12 2.87c-2.91.83-5.92 1.53-8.93 1.98-3.25.52-6.53.83-9.78.9-3.56.13-7.12.07-10.65-.25-3.87-.34-7.78-.97-11.59-1.76-4.21-.87-8.36-1.94-12.44-3.25-4.19-1.35-8.3-2.91-12.35-4.67-4.25-1.91-8.5-3.84-12.45-6.27-8.36-5.01-16.9-9.93-24.51-16.02-15.35-12.35-30.46-25.15-44.26-39.16-15.73-15.99-30.22-33.15-44.23-50.62-16.11-20.11-31.39-40.83-46.05-61.97-31.19-45.16-62.42-90.38-91.5-136.95-25.31-40.52-47.72-82.77-71.57-124.15l-.73-1.59-10.96-26.16-4.29-14.88-90.25 92.14c-33.47 34.16-67.29 67.96-100.59 102.25-4.08 4.19-7.91 8.61-11.51 13.25-3.11 4.05-5.84 8.37-8.4 12.73-1.28 2.11-2.32 4.4-3.15 6.72-.79 2.14-1.42 4.36-1.73 6.64-.31 2.08-.28 4.19.04 6.26.27 2.01.93 3.95 1.66 5.78.69 1.8 1.69 3.5 2.69 5.12 1.04 1.56 2.08 3.05 3.32 4.43 2.04 2.21 4.26 4.29 6.43 6.3.94.83 2.04 1.52 3.05 2.28 3.18 2.49 6.26 5.19 9.58 7.54 10.4 7.41 20.64 15.16 31.53 21.84 57.85 35.43 116.42 69.65 174.65 104.46l257.82 147.46c20.16 11.52 40.32 23.11 60.47 34.67l142.36-91.52c24.48-15.74 49.24-31.1 73.24-47.54 34.85-23.84 68.91-48.85 103.35-73.28 10-7.09 18.95-15.57 28.01-23.84 4.22-3.91 8.13-8.2 11.83-12.6 1.55-1.83 2.87-3.9 4.01-6.05.93-1.83 1.69-3.81 2.28-5.81ZM858 1314.13c-15.52-9.87-31.05-19.69-46.51-29.52l-122.71 83.25c-28.98 19.65-56.16 41.83-84.27 62.73l-13.66 12.08-3.11 3.35 6.74-.41 216.7-17.03c55.43-4.36 110.96-8.16 166.43-12.31 1-.07 2.04-.21 3.04-.42.73-.14 1.42-.31 2.07-.62.49-.21.94-.56 1.35-.94.28-.27.59-.62.69-1.03.21-.63.28-1.25.28-1.91.04-.27 0-.59-.17-.83-2.73-3.67-5.43-7.33-8.51-10.69-3.8-4.08-7.78-7.96-12-11.56-9.54-8.06-19.19-15.95-29.28-23.25-14.04-10.17-28.57-19.65-43.05-29.2-11.21-7.4-22.65-14.5-34.03-21.69ZM391.47 572.26l-.58 2.11.1 5.54 1.25 7.64 2.07 7.93 9.09 26.67 42.22 83.7c9.31 18.48 20.75 35.74 31.92 53.08 18.71 29.06 38.42 57.44 57.64 86.15 13.94 20.83 30.43 39.9 46.3 59.31 8.78 10.76 18.15 21.07 27.63 31.21 4.32 4.6 8.99 8.89 13.76 13.11 4.36 3.84 8.85 7.54 13.56 11 4.25 3.12 8.64 6.06 13.2 8.65 4.02 2.29 8.27 4.19 12.52 5.99 1.94.8 3.98 1.35 6.05 1.87 1.9.48 3.84.9 5.85 1.14 1.86.24 3.73.28 5.6.24 1.76-.07 3.56-.24 5.32-.55 1.46-.28 2.87-.69 4.26-1.18 1.24-.45 2.52-.97 3.66-1.59 1.11-.62 2.18-1.35 3.15-2.07.93-.73 1.93-1.53 2.66-2.43 1.49-1.8 2.97-3.66 4.05-5.71 1.14-2.07 1.9-4.36 2.59-6.6.69-2.29 1.14-4.68 1.52-7.06.35-2.39.59-4.81.73-7.2.31-4.26.65-8.51.55-12.8-.83-33.88-1.56-67.78-3.35-101.62-2.29-43.32-5.88-86.57-8.82-129.86l-4.88-2.18-54.73-23.39c-27.67-11.83-55.4-23.56-83.09-35.39-41.81-17.82-83.58-35.71-125.35-53.6l-16.18-7.2-11.9-4.56-4.6-1.32-1.59-.24-1 .1-.69.38-.49.73Z"/></svg>