<svg xmlns="http://www.w3.org/2000/svg" version="1.2" viewBox="0 0 1631 1430"><defs><clipPath id="a" clipPathUnits="userSpaceOnUse"><path d="M915.98 1429.76c-395.4 0-715.01-319.57-715.01-714.93C200.97 319.47 520.58-.11 915.98-.11s715.01 319.58 715.01 714.94c0 395.36-319.61 714.93-715.01 714.93z"/></clipPath><clipPath id="e" clipPathUnits="userSpaceOnUse"><path d="M915.98 1429.76c-395.4 0-715.01-319.57-715.01-714.93C200.97 319.47 520.58-.11 915.98-.11s715.01 319.58 715.01 714.94c0 395.36-319.61 714.93-715.01 714.93z"/></clipPath><clipPath id="f" clipPathUnits="userSpaceOnUse"><path d="M1106.05 691.77C819.37-188.88 211.65-278.09 27.58 415.51c-372.68 1404.7 1192.35 626.06 1078.47 276.26z"/></clipPath><clipPath id="h" clipPathUnits="userSpaceOnUse"><path d="M460.42 25.11c124.96 121.83 246.39 314.28 327.92 582.46 56.69 186.49-323.93 470.92-660.59 523.95C47.58 1012.52.79 869.12.79 714.88c0-310.71 189.72-577.15 459.63-689.77z"/></clipPath><linearGradient id="b" x1="173.8" x2="1686.2" y1="947.7" y2="947.7" gradientUnits="userSpaceOnUse"><stop offset="0" stop-color="#d6e6a6"/><stop offset="1" stop-color="#d3deaa"/></linearGradient><linearGradient id="c" x1="1685.9" x2="828" y1="760.7" y2="760.7" gradientUnits="userSpaceOnUse"><stop offset="0" stop-color="#cdd894"/><stop offset=".3" stop-color="#bfcf83"/><stop offset="1" stop-color="#9eba56"/></linearGradient><linearGradient id="d" x1="1538.3" x2="896.1" y1="1145.9" y2="33.6" gradientUnits="userSpaceOnUse"><stop offset="0" stop-color="#cfe294"/><stop offset=".2" stop-color="#b9d187"/><stop offset=".5" stop-color="#87b268"/><stop offset="1" stop-color="#338d45"/></linearGradient><radialGradient id="g" cx="598.7" cy="626.7" r="603.6" gradientUnits="userSpaceOnUse"><stop offset="0" stop-color="#010101"/><stop offset=".1" stop-color="#1f2428"/><stop offset=".2" stop-color="#35404a"/><stop offset=".3" stop-color="#46596b"/><stop offset=".5" stop-color="#536f8a"/><stop offset=".6" stop-color="#5c80a4"/><stop offset=".7" stop-color="#618db8"/><stop offset=".9" stop-color="#6595c6"/><stop offset="1" stop-color="#69c"/></radialGradient><radialGradient id="i" cx="237.2" cy="523.1" r="814.9" gradientUnits="userSpaceOnUse"><stop offset="0" stop-color="#e7f2f8"/><stop offset=".1" stop-color="#cadbed"/><stop offset=".3" stop-color="#a5c1e1"/><stop offset=".5" stop-color="#89aed7"/><stop offset=".7" stop-color="#76a2d1"/><stop offset=".8" stop-color="#6a9bcd"/><stop offset="1" stop-color="#69c"/></radialGradient></defs><g clip-path="url(#a)"><path fill="url(#b)" d="M1686.1 332.1v592.4c-43.1 75.5-92.4 150.8-147 221.9-299.9 390.5-757.3 651.9-1211.7 105C70.1 941.7 154 912.1 446.3 847.8c103.2-22.6 232.4-49.7 381.7-94.9 299.6 336.8 686.3 575.6 811.6 210 69.2-201.8 58.4-409.7-15.8-587.9 20.6-13.8 41.4-28.1 62.3-42.9z"/><path fill="url(#c)" d="M828 752.9c225.9-68.3 497.9-178.4 795.8-377.9 74.2 178.2 85 386 15.8 587.9-125.3 365.6-512 126.8-811.6-210z"/><path fill="url(#d)" d="M828 753C615.6 514.2 446.9 226.2 446.3 69.5v-.3C446.2 15.3 466-23 510.7-38.4c547.1-188.4 962 50.8 1113.1 413.4-297.9 199.5-569.9 309.6-795.8 378z"/></g><g clip-path="url(#e)"><g clip-path="url(#f)" opacity=".9"><path fill="url(#g)" d="M-287.5-241.2h1565v2098.3h-1565z"/></g></g><g clip-path="url(#h)"><path fill="url(#i)" d="M-123.2 1118.2 11-64.9 970.6 38.5 836.5 1221.6z"/></g></svg>