<svg xmlns="http://www.w3.org/2000/svg" version="1.2" viewBox="0 0 1542 1565"><path fill="#1ca18a" d="M1416.3 830.4c50.7 18.5 93.6 58.6 113.5 113.6 35.9 98.7-15.3 208.1-113.5 243.7l-981.7 357.7C266.7 1606.3 81.4 1520 20 1352c-60.8-168 25.9-354 193.7-415.4C103 977.2 46.3 1099 86.4 1209.8c40.1 110.3 162.3 167.1 272.6 126.9l899.6-327.7L213.7 628.7C103 588.1 46.3 466.2 86.4 355.5 126.5 245.2 248.7 188.4 359 228.6c-53.1-19.4-111.2 7.8-130.5 60.9-19.4 52.6 7.8 111.2 60.8 130.6z"/><path fill="#61c799" d="M1258.6 556.3 359 228.6c-110.3-40.2-232.5 16.6-272.6 126.9C46.3 466.2 103 588.1 213.7 628.3c-167.8-61-254.5-247-193.7-415C81.4 45.3 267.2-41.5 435 19.9l981.3 357.7c98.2 35.6 149.4 145 113.5 243.7-20.3 55-62.8 95.1-113.5 113.6l-1127 410.3c-53 19.4-80.2 78-60.8 130.6 19.3 53.1 77.9 80.3 130.5 60.9-110.3 40.2-232.5-16.6-272.6-126.9C46.3 1099 103 977.2 213.7 937z"/></svg>