<svg xmlns="http://www.w3.org/2000/svg" version="1.2" viewBox="0 0 1525 1021"><path fill="#f40009" d="M398.9 101.8c66.5-46.5 140.4-86.7 221.7-98.7 30.5-3.5 65.1-6.6 91.2 12.8 20.6 14.2 34 38.3 34.3 63.3.9 25.7-10.6 49.5-23 71.3-11.2 19-25 37.6-44.5 48.9-10.6 6-24.2 9.2-35.4 3.2-10.7-5.7-15.2-18.5-14.9-30.1.5-39.8 36.4-76.8 77-75.1 6-11.6 6.4-26.7-2-37.2-8.6-10.8-23.9-12.6-36.8-11.5-27.1 2.8-52.6 13.5-76.5 26.1-45.3 24.3-85.2 57.2-122.8 91.9-82.6 77.5-154.3 166.5-213.1 263.2-36.3 60.2-67.5 124-88.7 191.1-18.1 57.8-31.1 119.5-19.2 179.9 7.5 42.5 30.6 83.3 67.3 107.2 44.8 29.7 100.7 34.9 153.1 32.3 83.9-5.4 165.5-26.9 246.8-46.9 129.1-31.9 259.5-65.8 393.3-67 89.5-1.1 180.2 21.8 255.1 71.7 53.7 35.5 108.2 72.5 149.5 122.6-60.3-41.2-130.9-67.6-203.9-74-34-2.3-69.6-4.4-102.3 7.3-32 10.5-60 32.1-79.3 59.6-24.2-42.9-65.4-74.5-111.5-90.6-49.4-17.9-102.6-20.7-154.6-17.7-128.5 6.9-251.5 47.9-376.7 74.5-73.9 15.2-152.6 26.6-225.9 2.6-58.4-18-109.2-60.9-133.9-117.1C-6.7 799.9-3.1 725.1 8.8 655.8c22.1-121.2 81.5-232.6 156.1-329.4 66.4-85.8 145.6-161.7 234-224.6z"/><path fill="#f40009" fill-rule="evenodd" d="M593.5 282.3c27.5-17.6 57.9-33.1 91-35.7 22.2-1.6 46.5 4.5 61.4 22 13.3 15.8 16.5 37.6 15.4 57.6-2 38.9-15.8 75.9-31.5 111.2 29.2-3.9 54.2-21.3 77.6-38.1 46.6-36.5 86.1-81.6 134.8-115.6 30.3-21.1 65.8-39.1 103.8-36.6 25.2 1.1 51.2 14.5 62 38.2 11.3 24.4 5.4 52.8-5.3 76.4-12.4 25.9-27.9 53.2-54.3 67-16.8 9.7-41.5-1.2-44.1-20.7-1.4-20.4 10.3-38.9 22.6-54.2 12.3-15.2 32.1-22.2 51.4-21.8 1.6-9.2 4.3-20.1-2.3-28.1-8.1-9-22.1-9.7-33-6.6-18.5 6.2-34.1 18.4-49.1 30.4-38.4 32.3-71.9 70.3-99.6 112-30.3 49.4-60.5 100.1-75.6 156.5-4.2 18.6-7.4 39.1.5 57.2 7.9 17.9 29 27.7 47.9 24 24.9-4.5 46.2-19.6 65.9-34.5 67-53.9 118.5-123.5 169.9-191.6 40.7-52.8 83.9-104.3 135-147.5 32.8-26.6 69.7-52.7 112.9-57.6 23.7-3 45.4 11.7 59.2 29.8 3.9-6.2 8-12.4 12-18.6h103c-69.7 116.5-139.7 232.8-209.6 349.2-6.4 11.7-13.5 24.7-11.6 38.5 1.6 7.9 11.6 6 17 3.7 24.3-10 42.6-29.8 60.7-48.1 30.2-31.1 57.8-64.5 84.7-98.4h36.5c-38.9 54-80.3 106.3-126.6 154-26.3 26.4-53.6 52.2-85.2 72.1-17.8 10.9-37.4 20.6-58.6 21.9-16.3 1-34.2-4.8-43.2-19.2-10.7-16.9-9.6-38-6.5-57-27.8 29.4-60 56.5-98.6 70.2-20.8 7-44.9 9.5-65.1-.7-14.5-7.2-22.5-22.7-24.6-38.1-4.3-28.6 3.2-57.2 11.8-84.3-36.7 34.7-73.6 69.9-116.8 96.5-28.7 17.6-60.1 33-94.2 35.3-39.7 2.9-81.7-20.8-95.5-59-11.3-31.1-7.5-65.4.4-96.9 11.8-47.9 37.7-90.5 60.7-133.6-16.9 4.8-33.8 9.5-51.1 12.3-27.1 42.3-53.2 85.4-83.6 125.4-36.6 44.5-78.3 85.4-126 117.8-25.5 16.4-53.4 32.3-84.5 33.1-33.2.7-63.8-25.1-70.4-57.4-10.5-46 3.4-93.3 20.5-135.9 28.4-65.9 70.2-125.4 117.6-178.9 32.9-36.6 69.2-70.4 110.3-97.6zm88 12.4c-25.2 7.2-46.6 25.6-59.6 48.2-11.1 18.9-12.5 44.6 1.1 62.7 14.4 19.1 38 29.5 61 33.5 6.8 1.8 9.6-6.2 12.1-10.8 13.2-28.9 27.7-58.8 28.1-91.3.3-14.1-3.1-29.9-15-38.9-7.8-6.1-18.6-5.8-27.7-3.4zm671.4 5.8c-31.2 14.6-53.3 42.4-75 68.3-50.7 63.9-102.7 128.2-137.8 202.5-8.8 19-17.8 38.6-20.2 59.7-.8 8.3 1.1 18.9 9.7 22.5 11.2 5 24.1 1 33.5-6 23.3-17.2 40.8-40.7 58-63.7 23.2-31 43.9-63.9 64.1-96.9 35.9-58.4 70.3-117.6 104.8-176.6-4.7-16.6-24.4-16.2-37.1-9.8zM479.3 568.9c-6.5 20-12.5 41.9-6.7 62.8 3.7 13.8 18.5 22.8 32.5 20.3 20.3-3.3 37.1-16.6 52.2-29.6 47.7-42.2 82-96.7 113.8-151.2-38.3-10.5-75.4-32.2-94.9-67.9-36.9 52.2-76.5 104.2-96.9 165.6z"/></svg>