<svg xmlns="http://www.w3.org/2000/svg" version="1.2" viewBox="0 0 1522 1333"><path fill="#d21c2e" d="M967.8.1h540v148.4h-540z"/><path fill="#231f20" fill-rule="evenodd" d="M517.5 1302.2c-28.8 15.3-80.3 30.7-149.2 30.7C147.1 1332.9.1 1169.3.1 863.4c0-278.6 154.4-487.8 401.2-487.8 55.1 0 90.8 13.4 116.2 27v161.9c-20.2-8.3-67.2-20.8-112.1-20.8-133 0-201.6 144.5-201.6 315.7 0 190.3 77 306.1 201.7 306.1 37.7 0 82.2-7.3 112-22.1zm990.1-206.7c0 72.2 4.5 164.2 14.4 225.8h-399.7c-133.5 0-234.4-110.7-234.4-273.8 0-239.2 202.4-340.1 413.2-342V689c0-96.9-38-165-139.2-165-66.6 0-142.8 19.4-193.2 51.6V436.4c45.8-29.1 124.1-66.5 237.6-66.5 239.9 0 301.3 155.7 301.3 353.7zm-201.1 74.1.1-328c-79.5 1-223.7 22.9-223.7 184.9 0 105.1 56.1 143.1 101 143.1z"/></svg>