<svg xmlns="http://www.w3.org/2000/svg" version="1.2" viewBox="0 0 1514 1520"><path fill="#c00" fill-rule="evenodd" d="M1513.8 0v209.6c-180.7-63.9-486.7-32.8-794.3 96.6-52.1 21.3-104.2 47.5-153 73.7-8.2-1.7-16.3-1.7-24.4-1.7H364.6l-32.5 155.6c-29.3 22.9-55.4 47.5-79.8 72h-97.6c-19.6 50.8-34.2 62.3-53.8 62.3-37.4 0-30.9-42.6-19.5-99.9 13-60.6 24.4-99.9 63.5-99.9 17.9 0 30.9 8.2 22.8 70.4h136.7c24.4-129.3-47.2-168.6-143.2-168.6-65.1 0-120.5 21.2-161.2 57.3V0zM293 607.5h-21.2c16.3-18 32.6-32.8 52.1-49.1l-42.3 199.7h187.2c115.6 0 205.1-70.4 229.5-185 21.2-98.2 0-173.6-107.4-189.9 32.5-16.4 65.1-31.1 99.3-45.9 371.1-157.2 709.7-139.2 794.3 26.2 61.9 122.8-22.8 288.2-240.9 435.6-73.2 49.1-157.9 94.9-252.3 134.2-372.7 157.2-760.2 160.5-843.2-4.9-24.4-49.1-14.6-111.3 17.9-175.2 58.6-21.3 107.5-67.1 127-145.7zm437.9-227.6 1.6 379.9H892l87.9-247.3h1.6l-16.2 247.3H1128l161.2-379.9h-133.5l-83 239h-1.6l14.6-239H931.1l-84.7 239 17.9-239zm636.5 447c55.3-36 102.5-73.7 143.2-113v805.6H.1V758.1c21.1 6.6 47.2 11.5 76.5 11.5 19.5 0 40.7-3.3 61.8-6.6-32.5 73.7-35.8 142.5-4.8 201.4 96 186.7 519.2 198.1 942.4 19.7 104.2-44.2 208.4-101.5 291.4-157.2zM512.8 648.4c-11.4 16.4-27.6 24.6-52.1 24.6h-14.6L490 465h14.7c24.4 0 35.8 9.9 42.3 24.6 6.5 16.4 4.9 42.6-3.3 80.2-8.1 37.7-16.2 63.9-30.9 78.6z"/></svg>