<svg xmlns="http://www.w3.org/2000/svg" version="1.2" viewBox="0 0 1514 1069"><defs><clipPath id="a" clipPathUnits="userSpaceOnUse"><path d="M.48.5H4474v1409.33H.48z"/></clipPath></defs><g clip-path="url(#a)"><path fill="#1b619a" d="M1513.6 593v458.5h-131.1V605.3c0-128.9-70.9-205.8-189.5-205.8-121.7 0-210 91.1-210 216.7v435.3H851.9V.5H983v358.3c57.4-55.6 131.7-85 219.6-85 186 0 311 128.3 311 319.2zM714 834.6l91.1 91-25 22.6c-57 51.7-151.5 120.5-313.4 120.5C200.9 1068.7.5 843 .5 543.8.5 242.9 202.6 16 470.6 16c158.6 0 249.9 61.5 304.8 107.7l26.7 22.5-96.8 96.7-22.4-17.8c-67.1-53.4-133-77.2-213.6-77.2-190.8 0-334.6 168.9-334.6 393 0 222 147 395.9 334.6 395.9 84.2 0 152.7-25.7 222.2-83.5z"/></g></svg>