<svg xmlns="http://www.w3.org/2000/svg" version="1.2" viewBox="0 0 1502 915"><path fill="#fff" d="M750.31 99.49c20.67-33.74 54.95-69.04 91.86-83.97 63.54-28.9 148.71-16.47 200.55 29.27 50.17 45.44 75.61 107.73 63.61 177.36 12.3-2.27 24.72-10.15 37.75-14.63 77.87-21.97 160.23 1.86 210.16 68.62 37.5 47.65 47.3 121.69 24.79 179.27-11.17 28.95-30.23 54.99-55 77.21l2.5 2.51c72.44 3.52 143.64 59.77 165.61 128.75 23.83 69.57 2.87 143.91-48.01 194.8-41.57 41.08-95.03 55.3-154.45 54.1H210.9c-88.58 1.91-157.02-37.33-193.87-116.09-28.91-67.6-14.63-154.07 39.36-205.6 34.04-35.6 76.68-50.17 122.67-57.51-52.08-48.31-77.16-114.42-62.53-185.31 10.45-57.44 59.43-115.61 115.68-135.67 49.57-19.71 116.7-16.25 162.1 10.5l1.61-1.97c-13.68-78.17 20.97-148.7 85.82-191.93C539.55-9.91 632-8.9 688.62 32.67c25.44 15.58 46.4 42.34 61.69 66.82Z"/><path fill="#645faa" d="M1055.73 128.69c23.18 46.76 9.57 108.03-14.62 150.01L853.93 699.77l-1.62 1.97-67.65-427.16c-5.43-41.01 38.4-58.51 64.2-78.22-1.31-6.03-7.95-5.73-12.12-8.54l-63.24-.66-1.92-1.91c.35-53.03 28.9-102 77.28-127.73 50.53-29.2 121.71-21.26 165.55 16.18 17.8 15.88 32.79 34.32 41.32 54.99Z"/><path fill="#c9234a" d="M710.89 114.06c15.3 28.3 24.14 60.44 18.76 96.02l-76.32 489.09c.41.59-.3 1.25-.91 1.54l-19.76-39.34-191.3-427.16c-17.8-55-1.31-112.51 38.76-151.93 40.37-40.96 106.79-52.07 159.59-29.85 27.95 12.07 54.64 34.28 71.18 61.63Z"/><path fill="#0089cf" d="M1332.62 319.96c25.73 43.89 19.95 110.3-8.67 151.03-17.73 28.6-47 42.87-71.79 61.62L855.79 804.68h-.91l4.43-13.02 210.11-474.2c31.47-55.9 91.55-84.21 155.1-75.67 43.54 7.95 87.07 36.25 108.1 78.17Z"/><path fill="#f36f21" d="m432.17 317.46 218.65 487.17h-3.52L206.48 500.84c-44.86-37.79-63.24-94.41-48.02-151.61 11.41-42.88 47.01-82.95 89.35-98.84 69.33-25.38 147.44 1.61 184.36 67.07Z"/><path fill="#0db14b" d="M1447.64 663.87c21.98 46.4 13.32 109.94-18.09 149.41-31.17 37.8-72.87 58.46-121.78 57.15l-470.02.3 393.74-273.92c38.48-24.78 96.95-29.27 138.93-9.2 32.42 12.72 62.95 44.49 77.22 76.26Z"/><path fill="#fdb913" d="M55.79 663.87c-21.91 46.4-13.32 109.94 18.16 149.41 31.17 37.8 72.74 58.46 121.72 57.15l470.02.3-393.76-273.92c-38.46-24.78-96.92-29.27-138.85-9.2-32.44 12.72-62.95 44.49-77.29 76.26Z"/></svg>