<svg xmlns="http://www.w3.org/2000/svg" version="1.2" viewBox="0 0 1577 1440"><path fill="#0065ff" fill-rule="evenodd" d="M950.8 1380.8c-101.4 43.3-217.5 57.5-347.9 57.5-166.2 0-289.8-21.6-376.3-64.9-93.9-43.2-152-122.4-195.3-231.1-43.8-115.5-36.4-252.7 21.6-425.7C125.2 485.5 248.2 311.9 415 189.5 588.7 66.6 791.3 1.7 1029.9 1.7c188.4 0 318.8 35.9 405.9 108.1 115.6 94 137.2 245.9 137.2 383.1h-434.4c-7.4-65.5-29-115.5-86.5-144.6-29-21.6-72.9-29-116.1-29-101.4 0-195.3 36.4-275 115.5-65.5 58.1-108.8 152-152 274.4-43.3 152-58.1 260.1-21.7 317.6 29.1 58 94 87.1 181.1 87.1 86.5 0 158.8-29.1 216.9-72.3 43.3-36.4 87.1-87.1 123-144.6h434.3c-50.6 108.2-152 238.5-238.5 317.6-87.1 72.3-174.2 122.9-253.3 166.2z"/></svg>