<svg xmlns="http://www.w3.org/2000/svg" version="1.2" viewBox="0 0 1574 1573"><path fill-rule="evenodd" d="M167.9 1242 1.1 717.6c-2.8-11.4.6-23.3 9.1-31.3l255.7-203.9c7.9-6.8 20.5-5.1 26.7 2.9q0 .5.6.5l189.6 266.5c6.2 10.3 6.2 22.2.5 32.5l-297.7 459.5c-6.3 9.1-13.7 8-17.7-2.3zm836.9 330.9-541.4-.6c-11.4-.6-21.6-7.4-26.2-18.2l-111.6-310.4c-3.9-10.2 1.8-21.6 12-25.6L645 1116.8c11.4-2.9 22.8 1.1 30.2 9.6l337 430.5c6.9 8.6 3.5 15.4-7.4 16zm567.6-708.4L1405.1 1389c-4 10.8-13.7 18.2-25.7 19.3l-323.9 12.5c-11.4 0-19.9-8.5-20.5-19.9l.6-328.5c.6-12 7.4-22.3 18.2-26.8L1559.9 852c9.7-3.4 16 2.3 12.5 12.5zM1086.3 95.8l437.8 324.6c9.1 7.4 13 18.8 10.8 30.1l-88.8 318.3v.6c-3.5 10.3-14.3 16-24.5 12.5L1114.7 680c-10.8-4-18.8-14.2-19.3-25.6l-24.5-550.1c0-10.8 6.8-14.8 15.4-8.5zM218.6 329.3 656.4 5.2c9.7-6.2 22.2-6.8 31.9-.5l269.9 183.9c8.5 6.3 10.8 18.8 4.5 27.9L772.6 482.4c-7.4 9.1-18.8 13.1-30.2 10.8L221.5 346.3c-10.3-2.8-12-10.8-2.9-17z"/></svg>