<svg xmlns="http://www.w3.org/2000/svg" version="1.2" viewBox="0 0 1631 640"><defs><clipPath id="a" clipPathUnits="userSpaceOnUse"><path d="M-6130.66-443.81h8205.72v10686.2h-8205.72V-443.81Z"/></clipPath></defs><g clip-path="url(#a)"><path fill="#003b70" d="M1361 493.51h44.41c-19.82-24.92-38.82-48.66-58.44-73.31-19.54 24.58-38.47 48.25-58.22 73.11h45.51v132.06h-295.28v-98.38c-28.25 54.06-70.59 90.71-129.78 105.9-59.34 15.26-114.25 3.93-165.08-32.31v24.58H611.64V431.8l-1.8-.42c-1.1 2.42-2.28 4.77-3.25 7.25-16.5 39.9-37.78 76.97-66.93 109-45.65 50.12-102.36 79.39-169.36 88.3-67.83 9.04-133.38 1.03-195.2-29.07C97.95 569.31 45.66 508.84 19 427.73-9.94 340.05-5.59 253.14 37.03 170.65 86.21 75.39 165.29 19.26 271.53 3.59 339.42-6.42 403.45 7.6 463.62 40.25c3.38 1.86 6.83 3.66 10.22 5.38.34.21.83-.07 2.21-.2V14.71H599.2v201.16c-2.28.06-4.42.27-6.49.27-48.28.07-96.56 0-144.84.14-4.35 0-7.05-1.45-9.81-4.69-60.16-70.83-166.26-76.01-232.77-11.53-52.7 51.01-63.76 133.99-26.11 200.19 25.35 44.53 62.51 73.31 113.9 81.94 60.09 10.08 126.05-21.88 155.27-75.45 2.42-4.56 4.9-6.35 10.22-6.35 99.4.21 198.79.14 298.19.14h7.32c.96 10.08 1.59 19.67 2.9 29.2 2.9 20.91 8.98 40.8 22.31 57.78 18.23 23.26 48.63 28.85 74.18 13.87 32.81-19.26 35.44-66.89 3.87-89.88-12.36-8.97-26.8-15.6-41.03-21.47-40.89-16.91-80.88-35.34-116.38-62.26-32.95-24.92-59.41-54.88-72.67-94.92C603.69 131.51 672.07 19.19 777.13 2.97c48.08-7.46 90.97 4.49 129.3 33.76 1.73 1.31 3.46 2.55 5.18 3.79.28.21.83 0 2.22 0V14.77h120.8V215.8H900.08c-1.24-9.81-2-19.47-3.73-28.93-2.76-15.05-8.36-28.99-18.86-40.45-13.67-14.91-30.73-20.16-50.42-15.6-18.79 4.35-31.29 16.01-36.12 34.79-6.01 23.4 3.24 41.97 21.82 55.16 13.4 9.45 28.32 17.26 43.38 23.95 25.56 11.25 52.15 20.3 77.64 31.69 32.39 14.49 61.33 34.24 84.26 61.78 35.85 43.08 44.49 92.44 32.88 146.28-.55 2.49-1.17 5.04-1.72 7.52 0 .21.06.42.13 1.18 1.52.14 3.11.48 4.77.48 18.1.07 36.19.21 54.29-.14 2.69-.07 6.22-1.79 7.94-3.86 44.55-55.23 88.83-110.59 133.38-165.75 3.25-4.07 2.9-6.56-.21-10.42-43.99-54.26-87.79-108.66-131.79-162.85-1.79-2.28-5.59-4-8.49-4.07-14.64-.42-29.22-.21-44.34-.21V14.64h269.44v131.43h-46.07c20.03 25.2 38.96 48.95 58.71 73.73 19.62-24.57 38.55-48.32 58.51-73.38H1361V14.77h269.44v131.58c-14.02 0-27.97.28-41.85-.14-5.87-.2-9.4 1.87-12.99 6.22-43.1 53.29-86.34 106.44-129.85 159.39-4.42 5.39-4.42 8.49 0 13.95 43.72 53.56 87.23 107.34 130.61 161.19 3.8 4.69 7.53 7.24 13.95 6.9 13.33-.62 26.67-.14 40.27-.14v131.51H1361V493.51Z"/></g></svg>