<svg xmlns="http://www.w3.org/2000/svg" version="1.2" viewBox="0 0 1360 1614"><path fill="#022169" d="M918.2 793.5c-100.9-69.4-155.8-108.3-289.4-108.3-162.5 0-294.3 144.2-294.3 322s131.8 321.9 294.3 321.9c127.8 0 159.5-12.4 295.1-103.8V1545c-86.9 43.7-190.2 68.6-295.1 68.6C281.5 1613.6.1 1342 .1 1007.2c0-335 281.4-606.3 628.7-606.3 104 0 202.9 24.4 289.4 67.5zm105.1-375.3h315.3v1172.2h-315.3zm157.6-61.4c-98.6 0-178.3-79.7-178.3-178.4 0-98.6 79.7-178.4 178.3-178.4 98.7 0 178.4 79.8 178.4 178.4 0 98.7-79.7 178.4-178.4 178.4z"/></svg>