<svg xmlns="http://www.w3.org/2000/svg" version="1.2" viewBox="0 0 1526 1290"><defs><clipPath id="a" clipPathUnits="userSpaceOnUse"><path d="M0 0h1525.32v1290H0z"/></clipPath><clipPath id="b" clipPathUnits="userSpaceOnUse"><path d="m649.95 645 260.56 366.48L447.94 1290 0 645z"/></clipPath><clipPath id="d" clipPathUnits="userSpaceOnUse"><path d="m1525.32 645-439.15 645H447.94z"/></clipPath><clipPath id="f" clipPathUnits="userSpaceOnUse"><path d="M910.51 278.52 649.95 645H0L447.94 0z"/></clipPath><clipPath id="h" clipPathUnits="userSpaceOnUse"><path d="m1086.17 0 439.15 645L447.94 0z"/></clipPath><linearGradient id="c" x1=".2" x2="910.9" y1="966.8" y2="966.8" gradientUnits="userSpaceOnUse"><stop offset="0" stop-color="#3d54ce"/><stop offset="1" stop-color="#35cacf"/></linearGradient><linearGradient id="e" x1="447.7" x2="1526.5" y1="966.8" y2="966.8" gradientUnits="userSpaceOnUse"><stop offset="0" stop-color="#13457d"/><stop offset="1" stop-color="#279698"/></linearGradient><linearGradient id="g" x1="-.1" x2="911.3" y1="322" y2="322" gradientUnits="userSpaceOnUse"><stop offset="0" stop-color="#090086"/><stop offset="1" stop-color="#2f96a9"/></linearGradient><linearGradient id="i" x1="447.7" x2="1526.5" y1="322" y2="322" gradientUnits="userSpaceOnUse"><stop offset="0" stop-color="#3b62ca"/><stop offset="1" stop-color="#93dfe3"/></linearGradient></defs><g clip-path="url(#a)"><g clip-path="url(#b)"><path fill="url(#c)" d="M0 645h910.5v645H0z"/></g><g clip-path="url(#d)"><path fill="url(#e)" d="M447.9 645h1077.4v645H447.9z"/></g><g clip-path="url(#f)"><path fill="url(#g)" d="M0 0h910.5v645H0z"/></g><g clip-path="url(#h)"><path fill="url(#i)" d="M447.9 0h1077.4v645H447.9z"/></g></g></svg>