<svg xmlns="http://www.w3.org/2000/svg" version="1.2" viewBox="0 0 1525 855"><path fill="#ff3008" d="M1093.6 854.9H855c-7.3 0-14.6-.7-21.7-2.1-7.2-1.4-14.2-3.5-20.9-6.3-6.8-2.7-13.3-6.2-19.3-10.2-6.1-4-11.8-8.6-17-13.8L539.6 587.7c-2.6-2.6-4.8-5.5-6.5-8.7-1.7-3.2-3-6.6-3.7-10.1-.7-3.6-.9-7.2-.5-10.9.4-3.6 1.3-7.1 2.7-10.4 1.4-3.4 3.3-6.5 5.6-9.3 2.3-2.8 5.1-5.3 8.1-7.3 3.1-2 6.4-3.6 9.9-4.6 3.5-1.1 7.1-1.6 10.7-1.6h527.5c54.5-.6 98.2-44.6 97.6-98.4-.5-53.8-45.1-97-99.6-96.4H326.3c-29.6 0-58-11.6-78.9-32.4L11 62.9c-2.6-2.5-4.7-5.4-6.5-8.6-1.7-3.2-2.9-6.6-3.6-10.2C.2 40.6 0 37 .3 33.4c.4-3.6 1.3-7.2 2.7-10.5 1.4-3.4 3.3-6.5 5.6-9.3 2.3-2.8 5-5.3 8.1-7.3 3-2 6.3-3.6 9.8-4.7C30 .6 33.6 0 37.2 0h1085.3c143.4-.5 275.3 77.3 342.7 202.3 173.4 325.1-61.3 652.6-371.6 652.6z"/></svg>