<svg xmlns="http://www.w3.org/2000/svg" version="1.2" viewBox="0 0 1486 1590"><path fill="#632ca6" fill-rule="evenodd" d="m1485.19 1407.02-782.99 94.29-17.07-121.47-47.31 6.87c4.18 67.66-11.7 131.93-41.57 162.65-35.01 35.94-85.88 45.26-139.47 37.97-36.11-4.91-62.91-30.98-82.74-62.88 74.27 52.41 166.18 28.19 197.66-15.66 44.28-61.68 32.91-119.88 16.46-174.27-12.85-42.55-47.74-113.25-91.01-140.62-44.1-27.93-87.03-33.19-123.39-29.4l3.36-3.91c52.29-10.37 106.93-4.63 146.55 20.84 44.93 28.87 86.02 78.43 107.51 154.34 24.37-3.46 27.85-5.04 50.11-8.22l-50.23-391.1 106.26-11.7c-49.87-32.03-101.43-77.93-123.92-103.32-3.83-2.86-3.2-15.51-3.2-15.51 20.36 15.86 104.78 76.19 194.03 103.71 31.46 9.72 79.76 13.4 121.69-10.37 32.03-18.18 70.57-49.84 93.58-82.44l4.19 7.31c-.1 4.88-10.72 28.47-16.08 37.94 9.69 5.61 16.98 7.11 27.8 10.12l73.95-11.52c26.47-42.88 45.5-112.02 25.27-177.78-11.6-37.75-71.88-112.88-76.21-117.03-15.2-14.55 2.51-70.83-27.55-132.21C999.12 368.71 916.43 301 880.44 271.52c10.64 7.74 75.83 33.99 106.18 70.67 2.86-3.78 4.06-23.49 6.64-28.47-26.1-34.16-28.12-94.99-28.12-111.27 0-29.78-15.16-63.58-15.16-63.58s26.15 20.63 32.86 56.22c7.96 42.17 24.97 75.35 47.43 103.43 42.53 52.99 80.89 80.19 100.35 60.63 23.22-23.57-23.51-128.75-83.29-187.55-69.7-68.47-87.98-59.63-128.88-45.03-32.65 11.64-50.31 104.41-135.43 102.53-14.43-1.63-51.56-2.56-69.9-2.41 9.57-13.34 17.73-23.66 17.73-23.66s-28.55 11.47-52.84 26.04l-1.9-2.85c8.24-17.33 17.08-28.23 17.08-28.23s-22.82 13.7-43.63 30.11c3.84-20.61 18.13-33.74 18.13-33.74s-28.82 5.21-65.53 45.61c-41.73 11.39-51.79 18.93-85 33.65-54.07-11.79-79.59-30.82-103.88-65.88-18.51-26.78-51.44-30.86-85.15-17.03-49.01 20.36-111.09 48.13-111.09 48.13s20.21-.78 41.3.15c-28.83 10.94-56.65 25.97-56.65 25.97s13.55-.48 30.23-.2c-11.52 9.57-17.94 14.17-28.88 21.41-26.4 19.16-47.81 41.32-47.81 41.32s17.93-8.19 34.04-12.77c-11.25 25.82-33.56 44.78-29.45 76.36 3.93 28.87 39.29 88.25 84.99 124.67 3.93 3.18 66.37 60.9 113.4 37.18 47.03-23.64 65.59-44.77 73.33-77.1 9.09-37.19 3.9-65.29-15.48-145.93-6.41-26.62-23.09-81.44-31.18-107.61l1.83-1.33c15.35 32.48 54.72 118.08 70.62 175.55 24.77 89.66 16.98 135.14 5.66 151.82-34.13 50.31-121.76 56.92-161.55 29.05-6.09 96.56 15.47 139.06 22.73 160.48-3.63 24.61 12.3 70.29 12.3 70.29s1.83-20.78 9.09-31.73c1.98 24.47 14.25 53.45 14.25 53.45s-.75-17.94 4.89-33.39c7.88 13.38 13.72 16.56 21.13 26.57 7.46 26.07 22.47 45.21 22.47 45.21s-2.48-14-1.11-28.58c36.54 35.11 42.78 86.3 46.46 125.65 10.24 108.18-170.55 194.21-205.63 261.9-26.55 40.07-42.43 103.53 2.53 140.87 32.4 26.95 51.39 48.01 63.58 65.41l-152.66 22.17L.79 151.86 1304.92.65l76.54 790.77 39.84-7.58 63.89 623.18Zm-753.81 55.39 691.47-124.61-41.17-498.32-403.6 73.2c-9.99 12.9-34.73 35.52-46.6 41.4-51.02 25.7-85.45 18.26-115.23 10.52-19.11-4.86-30.2-7.59-46.13-14.75L671.6 963.4l59.78 499.01Zm613.29-544.32 35.66 383.64-613.99 113.15-5.78-54.24 112.92-172.35 128.24 37.49 110.27-184.2 132.18 87.2 100.5-210.69ZM943.15 440.34c-1.05-.35-2.38-.65-3.86-.85 8.16-10.12 32.66-12.6 50.11-4.51 46.26 21.54 40.25 62.46 41.5 86.52.35 6.89.22 11.55-.35 14.76-6.39-3.46-16.51-5.99-32.53-5.29-4.74.23-9.32.73-13.73 1.48-17.08-9.17-27.27-27.07-36.56-46.08l-2.15-4.86-.83-2.1-.3-.93c-5.16-16.23-1.7-19.51.48-24.49 2.22-5.11 10.59-9.37-1.78-13.65Zm135.26 284.37c-12 27.6-28.95 58.02-48.16 60.55-31.28 4.13-60.93-12.82-94.77-38.09-12.07-9.04-19.48-31.03-3.15-43.65 8.96-7.01 49.96-20.16 87.93-24.64 19.93-2.38 48.28-3.71 54.34-.35 12.02 6.66 12.02 27.17 3.81 46.18ZM748.18 533.4c2.16 26.45-6.48 41.05-13.89 49.34-15.51 2.02-34.39 5.83-57.08 13.19-13.45 4.36-25.12 9.22-35.36 14.05-2.68-1.75-5.58-3.88-9.09-6.88-35.09-30.38-33.91-83.97 2.73-108.97 49.69-33.88 113.7-20.53 103-10.37-20.41 19.44 6.74 13.75 9.69 49.64Z"/></svg>