<svg xmlns="http://www.w3.org/2000/svg" version="1.2" viewBox="0 0 1557 1537"><path d="M699.2 978c0-116.6 0-144.4-11.1-159.2-13-14.8-37-18.5-55.5-11.1l268-268.4v792.2c0 157.3 3.7 159.1 5.5 159.1l9.3 18.5 18.5 14.9 12.9 9.2h5.6v3.7H640v-3.7l3.7-1.8 5.6-1.9 12.9-7.4c7.4-1.8 14.8-9.3 18.5-13l11.1-12.9c1.8-3.7 5.5-5.6 5.5-107.4V976.1"/><path fill="#6fbe4a" fill-rule="evenodd" d="m.6 778 3.7-79.6 693-694c63.4-6.5 127.3-5.2 190.4 3.7L8 889.1C4.3 852.1.6 815 .6 778zm269.9 586.7c-34.9-29.8-67-62.6-96.1-98l423.2-423.9c18.4-7.4 49.9-3.7 60.9 11.1 9.3 13 9.3 22.2 9.3 111.1zm994.2-1190.1c37 27.7 70.2 61.1 99.8 96.2L937.6 696.5V505.9zM1115 78.3c42.5 20.4 83.2 46.3 122 74.1L152.2 1238.8c-27.7-37-53.6-79.6-73.9-122.1zM932 17.2c49.9 9.2 99.8 25.9 147.9 44.4L63.5 1079.6c-20.4-46.3-37-96.3-46.2-148.1zm-918.5 620C42 482.3 116.8 339.7 228 228.3 339.2 116.9 481.6 42 636.3 13.5z"/><path fill="#00954c" fill-rule="evenodd" d="M1383 1253.7c-27.7 37-61 70.3-94.3 101.8l-352.9-351.7v-198zm97.9-144.4c-20.3 42.6-40.7 79.6-68.4 118.5L937.6 750.3l92.4-92.6zm61-183.2c-11.1 50-25.9 99.9-46.2 148.1L1054 631.8l97.9-96.2zm-242.1-540.5 88.7-87c74 94.4 129.4 205.5 153.4 329.5zm-25.8 25.9 277.2 277.6c7.2 64 6.6 128.7-1.9 192.5l-371.4-372z"/></svg>