<svg xmlns="http://www.w3.org/2000/svg" version="1.2" viewBox="0 0 1516 498"><path fill="#63a844" fill-rule="evenodd" d="M1273 326.7zm-6 6c-3 3-79.3 79.4-106.2 155.7h-133.3c30-113.8 176.7-230.6 178.1-232.1l7.5-6-7.5-5.9c-1.5-1.6-128.7-107.8-176.6-227.7h134.7c31.4 94.4 98.8 149.8 101.8 151.3l4.5 4.5 4.4-4.5c3-3 71.9-58.4 104.8-151.3h134.7c-50.9 119.8-178.1 226.1-179.6 227.7l-7.5 5.9 7.5 6c1.5 1.5 148.2 116.8 181.1 232.1h-133.2c-25.5-74.9-104.8-152.7-107.8-155.7 0 0-1.4-5.8-1.4-6zm-727.4-80.9c0-164.6 76.3-245.5 232-245.5 146.6 0 199 89.8 199 167.7 0 16.5-4.5 35.9-6 41.9-74.8 47.9-161.6 68.9-276.9 68.9h-7.4v7.5c0 101.8 29.9 131.8 100.2 131.8 56.9 0 91.3-12 101.8-24 7.5 4.5 59.9 29.9 74.9 37.4-22.5 18-86.8 59.9-187.1 59.9-161.7 0-230.5-73.4-230.5-245.6zm140.7-25.4h7.5c80.8 0 103.2-12 145.2-34.4l4.4-3 1.5-3c0-1.5 9-19.5 9-35.9 0-54-29.9-74.9-73.3-74.9-83.9 0-94.3 70.4-94.3 142.2zm-494 271H.7V.3h185.6c170.6 0 254.5 80.9 254.5 247.1 0 167.7-83.8 248.6-254.5 250zM137 422.5h53.8l22.5-1.5c53.9-16.4 79.3-61.3 79.3-172.1 0-100.3-20.9-143.8-64.3-166.2-13.5-4.5-25.5-6-37.5-6H137v345.8z"/></svg>