<svg width="161" height="40" viewBox="0 0 161 40" fill="none" xmlns="http://www.w3.org/2000/svg">
<g id="Group 5400">
<path id="Vector" d="M153.96 12.0925C154.221 12.1934 154.585 12.3055 154.99 12.3055C155.486 12.3055 155.777 12.1149 155.777 11.7225C155.777 11.2816 155.446 11.1471 154.901 10.9677C154.261 10.7547 153.871 10.4707 153.871 9.83545C153.871 9.14787 154.346 8.76298 155.151 8.76298C155.505 8.76298 155.883 8.84893 156.126 8.94982L156.012 9.43561C155.751 9.34592 155.471 9.27866 155.185 9.27866C154.692 9.27866 154.456 9.4655 154.456 9.81676C154.456 10.1979 154.706 10.3287 155.185 10.4894C155.847 10.7136 156.365 10.949 156.365 11.7188C156.365 12.4886 155.769 12.8249 155.015 12.8249C154.552 12.8249 154.125 12.7277 153.849 12.6082L153.96 12.0962V12.0925ZM161 8.83024V12.7539H160.459V10.4857C160.459 10.2502 160.47 10.0335 160.485 9.83171C160.172 10.5604 159.775 11.304 159.26 12.1186H158.793C158.274 11.3078 157.877 10.5567 157.55 9.82797C157.572 10.026 157.583 10.2465 157.583 10.4894V12.7576H157.046V8.83398H157.642C158.017 9.76818 158.458 10.6164 159.028 11.5357C159.591 10.6164 160.022 9.77192 160.397 8.83398H160.996L161 8.83024ZM67.6881 28.5457C66.0034 29.2669 64.0944 29.7265 62.2221 29.7265C58.5511 29.7265 56.2669 27.8619 55.8954 23.7925H68.6628C68.7364 23.0713 68.8137 22.2342 68.8137 21.244C68.8137 16.4123 65.8931 12.7987 60.9494 12.7987C55.4834 12.7987 52 16.9466 52 22.8807C52 29.308 55.9321 33 61.8874 33C64.3224 33 66.5662 32.5067 68.3281 31.6697L67.6918 28.5494L67.6881 28.5457ZM60.9494 15.9526C63.8332 15.9526 65.1427 18.1611 65.1427 20.7059C65.1427 20.9338 65.1427 21.087 65.1059 21.315H55.9321C56.2705 18.0452 58.0288 15.9526 60.9494 15.9526ZM70.605 32.5404H74.3128C75.0999 29.4575 76.6706 27.1369 78.5428 24.7043C80.1907 26.7221 82.2874 29.7639 83.4865 32.5404H87.6062C85.734 28.243 83.8249 25.5787 81.2795 22.649C84.2369 19.6446 85.9988 16.9429 86.9699 13.2546H83.1113C82.6258 15.6499 81.1655 17.9705 79.2528 20.3284C77.4541 18.0826 75.5818 15.2688 74.8351 13.2546H70.7521C72.0248 16.8681 74.0479 19.5699 76.5565 22.3837C73.4116 25.7319 71.6901 28.5831 70.6013 32.5404H70.605ZM104.302 28.5457C102.618 29.2669 100.708 29.7265 98.8362 29.7265C95.1652 29.7265 92.881 27.8619 92.5095 23.7925H105.277C105.351 23.0713 105.428 22.2342 105.428 21.244C105.428 16.4123 102.507 12.7987 97.5635 12.7987C92.0975 12.7987 88.6141 16.9466 88.6141 22.8807C88.6141 29.308 92.5462 33 98.5015 33C100.937 33 103.18 32.5067 104.942 31.6697L104.306 28.5494L104.302 28.5457ZM97.5635 15.9526C100.447 15.9526 101.757 18.1611 101.757 20.7059C101.757 20.9338 101.757 21.087 101.72 21.315H92.5462C92.8847 18.0452 94.6429 15.9526 97.5635 15.9526ZM112.626 32.5404V5L108.845 5.22795V32.5404H112.626ZM133.346 22.877C133.346 16.8681 130.051 12.795 124.434 12.795C118.817 12.795 115.558 16.8644 115.558 22.877C115.558 28.8895 118.89 32.9963 124.434 32.9963C129.977 32.9963 133.346 28.9269 133.346 22.877ZM119.416 22.877C119.416 18.7291 121.138 16.0311 124.434 16.0311C127.729 16.0311 129.451 18.7328 129.451 22.877C129.451 27.0211 127.84 29.7639 124.434 29.7639C121.028 29.7639 119.416 27.0622 119.416 22.877ZM140.291 32.5404V17.0214C141.564 16.3749 143.098 16.0311 144.672 16.0311C147.519 16.0311 148.902 17.6305 148.902 20.4069V32.5404H152.683V20.1379C152.683 15.4967 149.914 12.795 144.672 12.795C141.788 12.795 138.831 13.4788 136.51 14.5812V32.5366H140.291V32.5404Z" fill="#170D67"/>
<path id="Vector_2" d="M39.4138 24.0845C38.8407 22.4437 37.9113 20.7622 37.0774 19.3362C36.0121 17.5102 35.7072 15.7249 36.0599 13.3582C36.5742 9.90987 35.6705 6.75048 33.639 4.90596C32.3055 3.6948 29.8626 2.46883 25.8107 3.52813C22.5119 4.38742 19.4666 2.75773 17.02 1.44656C15.1391 0.439115 13.6514 -0.357214 12.5052 0.165029C11.8403 0.468745 11.3811 1.1947 11.1019 2.38364C10.3672 5.52451 9.65824 7.69497 8.86843 9.21725C8.21087 10.484 7.50922 11.2951 6.52839 11.9211C4.08917 13.4804 2.29649 15.2175 1.20178 17.0805C0.235643 18.7436 -0.161098 20.5103 0.0593136 22.1882C0.25401 23.6586 0.918919 25.0475 1.97689 26.1957C3.00548 27.3143 4.35367 28.1514 5.8745 28.6255C7.07942 28.9995 8.04189 29.6551 8.81333 30.6255C9.54803 31.5515 10.1174 32.7775 10.5509 34.3701C10.9366 35.7924 11.5538 36.9851 12.384 37.9258C13.2105 38.8629 14.2061 39.4926 15.3412 39.7963C15.8481 39.9333 16.3698 40 16.9061 40C17.7253 40 18.5776 39.8407 19.4445 39.5185C20.9543 38.9629 22.4531 37.9444 23.9042 36.4924C25.3148 35.0813 26.6116 34.1886 27.9818 33.6886C29.194 33.2442 30.3181 33.1664 31.5047 33.0812C32.8566 32.9849 34.2562 32.8849 35.9129 32.2478C37.9187 31.4737 39.2007 30.3181 39.7224 28.8144C40.1742 27.5106 40.075 25.9661 39.4211 24.0845H39.4138ZM36.5374 23.9882C36.2913 26.6809 35.0203 28.8921 32.7647 30.5626C31.7729 31.2922 30.8067 31.7737 29.8222 32.1923C30.5018 31.67 31.141 31.0922 31.7325 30.4515C33.1247 28.944 34.1827 27.2069 34.877 25.2846C35.5492 23.4289 35.8542 21.4844 35.7844 19.5029C35.7697 19.0695 35.7329 18.6399 35.6815 18.2139C35.7513 18.3547 35.8137 18.488 35.8799 18.6288C36.464 20.5622 36.688 22.3585 36.5411 23.9882H36.5374ZM21.1674 34.6998C20.9911 34.7072 20.8147 34.7109 20.6384 34.7109C16.9502 34.7109 13.453 33.3256 10.7419 30.7774C7.89862 28.1069 6.26023 24.4845 6.12063 20.5696C5.98104 16.6546 7.36596 12.9211 10.0109 10.058C12.6595 7.19124 16.2522 5.53932 20.1351 5.39858C20.3115 5.39117 20.4878 5.38747 20.6641 5.38747C24.3523 5.38747 27.8495 6.77271 30.5606 9.32096C33.4039 11.9914 35.0423 15.6138 35.1819 19.5288C35.3215 23.4438 33.9366 27.1772 31.2916 30.0403C28.643 32.9071 25.0503 34.559 21.1674 34.6998ZM30.9684 8.8765C29.4732 7.47274 27.7504 6.40603 25.8438 5.706C24.7821 5.31709 23.6874 5.05042 22.578 4.90967C26.5711 4.50595 29.9067 6.26528 31.8757 9.80987C31.5855 9.48763 31.288 9.17651 30.9684 8.8765ZM14.4595 6.11342C12.6081 6.94679 10.966 8.13573 9.57375 9.6432C9.52966 9.69135 9.48925 9.7432 9.44517 9.79135C9.61415 9.41356 9.78314 9.00984 9.95947 8.57649C10.1358 8.23573 10.3158 7.89127 10.5068 7.5283C11.9285 4.86893 14.364 4.96523 17.4461 5.08745C17.5012 5.08745 17.56 5.09116 17.6151 5.09486C16.5314 5.31709 15.4771 5.65414 14.4595 6.11342ZM5.51817 20.5844C5.58797 22.5659 6.02879 24.4845 6.82962 26.2846C7.30351 27.3513 7.89494 28.3514 8.59291 29.2736C6.70105 27.8328 5.40429 25.8624 4.91571 23.6512C4.41612 21.3881 4.75775 18.9695 5.89655 16.599C5.59899 17.8991 5.46674 19.2325 5.5145 20.5844H5.51817ZM15.4514 34.385C17.1192 34.9998 18.8604 35.3072 20.6347 35.3072C20.8184 35.3072 21.0021 35.3072 21.1821 35.2961C22.0931 35.2628 22.9895 35.1479 23.8674 34.9553C22.3797 35.822 20.8184 36.2776 19.2865 36.2776C18.967 36.2776 18.651 36.2591 18.3388 36.2184C16.4983 35.9924 14.8636 35.1183 13.6109 33.6997C13.5301 33.6071 13.4493 33.5183 13.3648 33.4294C14.0334 33.7997 14.7277 34.1183 15.4514 34.385ZM33.5655 11.8248C33.2827 11.2655 32.9925 10.684 32.7096 10.1062C31.7178 8.08017 30.2704 6.4764 28.5255 5.47636C27.5006 4.89115 26.3911 4.51706 25.2083 4.34298C27.2471 4.13556 29.0655 4.56521 30.5128 5.6134C31.4422 6.2875 32.21 7.19495 32.7904 8.30981C33.3525 9.38763 33.7125 10.6099 33.8668 11.9396C33.8925 12.1692 33.9255 12.3915 33.9586 12.6137C33.8264 12.3507 33.6941 12.0877 33.5655 11.8248ZM17.4645 4.48373C15.9179 4.42076 14.4595 4.3652 13.1885 4.68744C12.2958 4.91337 11.5648 5.30969 10.966 5.8986C11.0689 5.6134 11.1681 5.3245 11.2746 5.02078C11.7852 3.54665 12.5309 3.03181 13.6403 3.03181C14.4779 3.03181 15.5212 3.32812 16.8253 3.72443C17.7584 4.00963 18.7943 4.32816 19.9037 4.52817C19.0772 4.54299 18.2653 4.51336 17.4682 4.48373H17.4645ZM5.97736 15.1842C4.29122 18.0398 3.72182 21.014 4.3353 23.7845C4.66591 25.2809 5.34184 26.6735 6.30798 27.881C4.43448 26.7254 3.20018 24.9512 2.88425 22.9215C2.5867 20.9955 2.99079 17.9658 6.44757 14.3471C6.29329 14.636 6.139 14.9175 5.98104 15.1842H5.97736ZM13.1665 34.1035C14.5183 35.6332 16.2816 36.5739 18.269 36.8184C18.6069 36.8591 18.9486 36.8814 19.2939 36.8814C20.4878 36.8814 21.6927 36.6221 22.8719 36.1295C20.8625 37.5258 18.7576 38.0629 16.851 37.6443C14.9371 37.2221 13.3611 35.8776 12.4097 33.859C12.1819 33.3738 11.8917 32.8849 11.5538 32.4034C12.0828 32.9145 12.6191 33.4812 13.1701 34.1072L13.1665 34.1035ZM31.3063 32.1626C31.9051 31.8552 32.5039 31.4996 33.1174 31.0441C35.5199 29.2699 36.8717 26.9143 37.1325 24.0401C37.2023 23.2623 37.1876 22.4474 37.0995 21.6067C37.5513 22.9771 37.7901 24.2068 37.8048 25.3031C37.8195 26.5217 37.5623 27.6032 37.037 28.5218C36.4493 29.5551 35.5052 30.4181 34.2305 31.0922C33.1908 31.6441 32.2504 31.933 31.3063 32.1589V32.1626ZM33.2423 5.35413C35.1231 7.06161 35.957 10.021 35.4721 13.2693C35.3509 14.0767 35.3105 14.8138 35.3399 15.5175C35.2333 15.2731 35.1268 15.0323 35.0129 14.7916C34.7705 13.8841 34.5905 12.9285 34.4656 11.8729C34.3039 10.4692 33.9182 9.17651 33.3231 8.03202C32.6986 6.83197 31.872 5.85415 30.8655 5.1282C29.9104 4.43558 28.8083 3.99482 27.6034 3.80222C30.4247 3.47257 32.2063 4.41335 33.2423 5.35413ZM12.7587 0.7132C12.924 0.639123 13.1077 0.605788 13.306 0.605788C14.1803 0.605788 15.3889 1.25396 16.7445 1.97992C18.2543 2.79106 19.9882 3.71332 21.8837 4.13556C20.1351 4.10593 18.4931 3.60591 16.9979 3.14663C15.5689 2.70958 14.3383 2.33178 13.273 2.4429C12.5346 2.52068 11.9505 2.8244 11.4877 3.37627C11.5574 3.09848 11.6236 2.81699 11.6934 2.52439C11.9248 1.52805 12.2738 0.935431 12.7624 0.716904L12.7587 0.7132ZM2.41772 25.7846C1.44423 24.7253 0.834428 23.4549 0.654425 22.1067C0.445034 20.5436 0.805039 18.9547 1.72342 17.388C2.7667 15.6064 4.49326 13.9397 6.85534 12.4322C7.16391 12.2322 7.45045 12.0137 7.71862 11.7692C7.68188 11.8433 7.64882 11.9137 7.61208 11.9877C7.21534 12.6063 6.81493 13.11 6.38145 13.5397C2.40302 17.5028 1.9622 20.877 2.28914 23.0104C2.56098 24.7846 3.47937 26.3772 4.87898 27.581C3.93856 27.1328 3.09732 26.5217 2.41404 25.7772L2.41772 25.7846ZM19.2351 38.9518C17.9163 39.437 16.6563 39.5259 15.4918 39.2111C14.4742 38.937 13.5779 38.3666 12.8285 37.5221C12.0607 36.6554 11.4877 35.5406 11.1276 34.2109C10.8485 33.1849 10.5068 32.296 10.0991 31.5256C10.8007 32.3071 11.4252 33.1849 11.866 34.1183C12.8983 36.311 14.6212 37.7703 16.7224 38.2333C17.189 38.337 17.6665 38.3888 18.1514 38.3888C19.4261 38.3888 20.7413 38.0333 22.038 37.3443C21.1123 38.0666 20.1755 38.6073 19.2388 38.9518H19.2351ZM39.153 28.6143C38.6828 29.9626 37.5513 30.9663 35.6925 31.6848C34.6419 32.0886 33.6941 32.2663 32.7868 32.3664C33.3415 32.1812 33.9109 31.9478 34.5096 31.6293C37.1252 30.244 38.4366 28.1143 38.4036 25.2957C38.3926 24.2882 38.2052 23.1845 37.8489 21.9733C38.2346 22.7363 38.5836 23.5178 38.8517 24.2845C39.4616 26.0291 39.5607 27.4439 39.153 28.6143Z" fill="url(#paint0_linear_2519_51792)"/>
</g>
<defs>
<linearGradient id="paint0_linear_2519_51792" x1="11.8807" y1="38.0147" x2="31.8556" y2="3.69629" gradientUnits="userSpaceOnUse">
<stop offset="0.17" stop-color="#6E06C1"/>
<stop offset="0.25" stop-color="#5E24BD"/>
<stop offset="0.46" stop-color="#3D67B4"/>
<stop offset="0.64" stop-color="#239DAD"/>
<stop offset="0.8" stop-color="#0FC3A9"/>
<stop offset="0.92" stop-color="#04DBA6"/>
<stop offset="1" stop-color="#00E4A5"/>
</linearGradient>
</defs>
</svg>
