<svg xmlns="http://www.w3.org/2000/svg" version="1.2" viewBox="0 0 1450 296"><g fill="#1a64b7" fill-rule="evenodd"><path d="m1410.4 247.3-12.5 43.3h-217.2l2.3-42h-54.1l-20.3 42h-133l-19.1-121.8-1 .6L927 290.6H693.9l50-174h-46.8l-50 174h-69l50-174h-40.7c-.1 6.8-1.6 14.1-4.4 21.9h-63.5c2.9-12.7 8.6-30-14-31.2-14-.9-23.9 4.9-28.3 14.5-5.7 13 1.5 19.6 13.5 26.6 22.5 12.1 42.7 19.6 55.6 30.6 12.9 11 18.1 25.5 10.6 51.8-12 41.6-50 64.8-107.3 64.8-40.6 0-63-10.8-71.6-26.1l.1 21.1h-69.8l2.3-41.9h-54.1l-20.3 41.9h-69.3l71.2-122.3H127.7L92.6 290.6H.8L84 .8h216.2l-16.7 58.1H159.1l-14.7 51.3h114.4L246 154.9l47.6-81.7h83.1l1 160 4.5-15.4 63.9-.1-4.4 15.3c-3.6 12.5-1.3 23.5 20.5 23.5 16.2 0 26.5-10.7 29.6-21.7 5.2-18.2-13.4-25.1-29.2-33.2-18.7-9-34.3-17.4-44.1-28.4-9.4-11-13-24.2-7.5-43.3 11.7-40.8 51-61.7 104.5-61.7 33.6 0 55.3 9.2 65.4 24.4l5.5-19.4h327.9l-12.5 43.4h-88.9L801.2 157h86.2L875 200.4h-86.2l-13.5 46.9h98.5l50-174.1H995l18.9 121.5h1.1l28.2-121.5h65.5L1053 266.9l113-193.7h83l1.3 197.8 56.9-197.8h68.9l-50 174.1zM323.8 112.7h-.7L275 210.4h40zm872.4 0h-.8l-48.1 97.8h40zm243.3-9.4h-3.6l-5.6-9.2h-3.7v9.2h-3.2V82.1h8.1c5 0 7.5 1.8 7.5 6 0 3.8-2.4 5.4-5.5 5.9zm-9.1-11.9c2.7 0 5.2-.2 5.2-3.5 0-2.6-2.4-3.1-4.7-3.1h-4.4v6.6z"/><path d="M1449.1 92.7c0 10.6-8.6 18.3-18.6 18.3-10.2 0-18.8-7.7-18.8-18.3 0-10.6 8.6-18.4 18.8-18.4 10 0 18.6 7.8 18.6 18.4zm-3.7 0c0-8.8-6.6-15.3-14.9-15.3-8.5 0-15.1 6.5-15.1 15.3s6.6 15.3 15.1 15.3c8.3 0 14.9-6.5 14.9-15.3z"/></g></svg>