<svg xmlns="http://www.w3.org/2000/svg" version="1.2" viewBox="0 0 1541 1540"><path fill="#640acd" fill-rule="evenodd" d="M770.3 1540c-425.8 0-770-344.2-770-770S344.5 0 770.3 0s770 344.2 770 770-344.2 770-770 770zM1504 770c0-405.7-328.1-733.6-733.9-733.6C364.3 36.4 36.3 364.3 36.3 770c0 405.7 328 733.6 733.8 733.6 405.8 0 733.9-327.9 733.9-733.6zm-81.3 219.6c-.4.8-1.8 1.7-4 .8-1.8-.8-2.3-1.7-2.3-2.6 0-1.4 25.6-77.3 25.6-164.4-.4-93.8-38.6-151.3-87.5-151.3-29.6 0-51.2 21.1-51.2 53 0 57.9 70.5 62 70.5 188.1 0 51.2-10.8 100.1-27.8 153.6-78.6 266.2-330.4 390.1-575.9 390.1-113.1 0-193.4-23.3-217.2-34.1-.9-.4-1.8-2.2-.9-4 .4-1.8 2.2-2.7 3.1-2.3 9.4 4.1 78.6 25.6 163.8 25.6 93.8 0 149.5-38.6 149.5-85.3 0-30.1-23.8-53.4-53.4-53.4-57.5 0-62 72.3-185.8 72.3-53 0-100.1-10.4-155.8-27.4C209.1 1267 82.9 1017.4 83.4 770c0-120.3 33.6-216.4 34.1-217.3.4-.5 2.2-1.4 4-.5 1.8.5 2.3 2.3 2.3 2.7-3.2 9.9-25.6 78.6-25.6 163.9 0 93.9 38.6 149.5 87.5 149.5 27.8 0 51.2-21.5 51.2-51.2 0-57.9-70.5-64.2-70.5-187.6 0-53.5 10.8-100.6 27.8-155.8C275 209.2 524.6 85.3 770.1 83.1c114-.5 213.6 33.2 217.7 36.3.4.5 1.3 2.3.4 4.1-.9 1.8-2.2 2.2-2.7 1.8-1.3 0-65.9-27-164.2-27-91.6 0-149.5 38.2-149.5 87.6 0 27.4 21.6 50.7 53.4 50.7 57.9 0 62-70 185.8-70 53 0 100.1 10.3 155.3 27.4 267.1 81.2 388.3 333.1 390.5 576 1.4 124.8-33.6 219.1-34.1 219.6zM1056 806.4c-72.7 0-127.9 53.4-127.9 117.2 0 53.4 31.9 96 74.5 96 14.8 0 29.6-8.5 29.6-27.8 0-27.4-36.3-34.1-33.6-75.9 1.8-27.4 27.3-45.8 52.9-45.8 51.2 0 75.4 49.9 75.4 101-2.2 79.1-60.6 133.8-128.8 133.8-89.3 0-146.8-85.3-146.8-176.9 0-136.4 89.4-189.9 136.5-202.9.4 0 122.5 22 118.5-31.9-1.4-23.8-36.8-32.8-62.4-33.6-28.3-1.4-56.6 8.9-56.6 8.9-14.8-7.6-25.1-22.4-31.4-39 87.1-66.5 149-130.2 149-203 0-38.1-25.5-72.3-74.5-72.3-87.5 0-153.5 110.9-153.5 211.1 0 17 0 34.1 4.1 48.9-55.2 40.4-96.5 65.6-171.5 110.5 0-9.5 2.3-33.3 8.5-64.7 25.6-27.8 60.6-69.1 60.6-101 0-15.3-8.5-27.9-25.6-27.9-42.6 0-74.5 63.8-83 108.7-19.3 23.8-57.9 53.4-89.8 53.4-25.5 0-34.1-23.3-36.3-31.9 81.2-27.8 181.3-138.7 181.3-238.8 0-21.6-8.5-68.3-72.2-68.3-96.1 0-177.3 142.8-177.3 253.7-34.1 0-46.7-36.3-46.7-64.2 0-27.4 10.8-55.2 10.8-63.7 0-8.6-4.5-19.3-17.5-19.3-31.9 0-51.2 42.6-51.2 91.5 2.2 68.3 47.1 110.9 106.8 115.4 8.5 40.4 44.9 79.1 89.8 79.1 27.8 0 61.9-8.6 85.3-30.1-2.3 14.8-4.5 27.8-6.3 40.4-94.3 49.4-162.5 83.5-224 138.7-49.4 44.9-77.2 104.6-77.2 151.8 0 63.7 40.8 123.4 123.9 123.4 98.3 0 172.8-79 209.1-187.6 17.1-51.2 23.8-125.7 28.3-194 97.9-55.7 144.5-87.5 195.7-123.9 6.3 10.8 13 19.3 21.1 25.6-44.4 23.3-151.3 89.8-151.3 245.1 0 110.9 74.6 234.8 221.8 234.8 121.6 0 204.6-100.1 204.6-196.2 0-87.5-48.9-168.3-142.7-168.3zM539.8 601.6c0-70.5 69.6-204.3 111.8-190.3 50.3 16.6-41.3 151.7-111.8 190.3zm-70.4 503.3c-31.9 1.4-53.4-19.3-53.4-52.9 0-92.1 127.4-179.6 223-226.3-16.6 127.9-60.1 274.3-169.6 279.2zm473.5-535.6c0-87.1 59.3-172.4 91.6-156.2 36.8 18.4-27.4 101-91.6 156.2z"/></svg>