<svg xmlns="http://www.w3.org/2000/svg" version="1.2" viewBox="0 0 1141 1517"><path fill="#c6093b" d="M1136 .3c2.2 0 4.5 1.6 4.5 4.5 0 2.1-2.6 3.2-4.5 3.3v1.1c-301.3 104.7-600.2 504-721 962.9-18 68.5-31.6 138.5-41.3 208.9 0 0-49 5.4 4.4-230.1C68.7 742.6 188.5 90.3 1134.9.3h1.1zm-45.8 154.1v726.1c0 404.8-545.5 635.6-545.5 635.6S.3 1288.9.3 880.5V154.4h453.8c2.2.3 3.4 1.9 3.4 4.5 0 2.3-1.2 3.4-3.4 3.4H453L45 200.2v680.3c0 363.2 499.7 589.8 499.7 589.8v-466.9c187 12.5 308.3-117.6 376.7-309.4 59.5-168.2 81.6-387.5 159.8-540.7.9-1.7 2.9-3.3 4.5-3.3 2.2 0 4.5 2.5 4.5 4.4z"/></svg>