<svg xmlns="http://www.w3.org/2000/svg" version="1.2" viewBox="0 0 405 1525"><defs><clipPath id="a" clipPathUnits="userSpaceOnUse"><path d="M-5928.96-2972.82H33299v51132.66H-5928.96V-2972.82Z"/></clipPath></defs><g clip-path="url(#a)"><path fill="#2c2e35" fill-rule="evenodd" d="M150.71 608.45H252.1v916.93H150.71V608.45Zm251.3-407.93c0 110.63-90.16 200.48-200.44 200.48C90.95 401 1.13 311.15 1.13 200.52 1.13 89.85 90.95 0 201.57 0c110.28 0 200.44 89.85 200.44 200.52Zm-96.75 0c0-57.16-46.57-103.73-103.69-103.73-57.45 0-104.03 46.57-104.03 103.73 0 57.12 46.58 103.69 104.03 103.69 57.12 0 103.69-46.57 103.69-103.69Z"/></g></svg>