<svg xmlns="http://www.w3.org/2000/svg" version="1.2" viewBox="0 0 1408 1516"><path fill="#3e3234" d="m974.9 754.8 433.1 713.8H994.9L575.2 754.8 994.9 40.9H1408z"/><path fill="#964b3c" d="M152 703.7c-62.1 0-112.3-50.3-112.3-112.5S89.9 478.8 152 478.8c62.1 0 112.4 50.2 112.4 112.4S214.1 703.7 152 703.7z"/><path fill="#50d2f5" d="M382 703.8c-34.5 0-62.3-27.9-62.3-62.4S347.5 579 382 579c34.4 0 62.3 27.9 62.3 62.4s-27.9 62.4-62.3 62.4z"/><path fill="#75c447" d="M475.3 298.9c-64.4 175.7-26.7 233.5-26.7 233.5C313.1 510.2 95.5 356.7 97.7 203.3 99.9 96.5 175.4 5.4 282 .9c211-11.1 222.1 218 193.3 298z"/><path fill="#df2655" d="M293.1 1515.3C139.9 1524.2 20 1404.1 2.2 1252.9-24.4 1032.8 282 777 475.3 728.1c0 0-31.1 86.7 53.3 331.4 39.9 117.8 71 442.5-235.5 455.8z"/></svg>