<svg xmlns="http://www.w3.org/2000/svg" version="1.2" viewBox="0 0 1535 716"><path fill="#1d3c6d" d="M388.79 3.14c57.91.33 115.82.09 173.74.09-84.84 114.32-167.78 230.11-253.14 344.01C385.4 461.06 460.2 575.54 536.81 688.9c-60.06.45-120.15-.16-180.15.36-66.91-101.75-133.99-203.4-200.58-305.33-.16 101.75-.16 203.49.09 305.24-51.77-.27-103.54-.09-155.31-.09.18-228.56.18-457.13 0-685.7 51.77-.24 103.47 0 155.22-.24-.09 107.9-.25 215.8.09 323.7C233.39 218.7 311.39 111.13 388.79 3.14Z"/><path fill="#e32726" d="m1338.8 562.05 85.76-331.41c57.15-200.49 89.82-208.67 110.25-229.13h-134.75c-48.99 0-85.77 69.55-93.93 114.57l-57.17 208.66h-122.49s73.5-265.94 81.66-294.59c4.08-12.26 4.08-28.64-20.4-28.64-4.11 0-261.34-8.18-343.02 20.46-36.75 12.27-89.82 45-106.17 94.11-12.24 28.65-28.58 81.82 8.19 180.02 4.08 12.27 12.24 20.47 16.32 24.56 12.24 8.17 118.41-8.18 114.33-8.18 8.18 0 12.26-4.11 4.08-20.47-8.16-20.46-32.65-57.29-36.75-94.11C828.39 54.71 930.47 34.24 946.79 30.15c24.51-4.09 44.93-4.09 69.42 0 8.18 0 28.58 4.09 32.66 12.29 8.19 16.36-4.08 45-12.24 77.73-8.16 24.56-77.57 278.22-98 347.77-12.24 53.2-65.33 167.75-118.41 184.13-12.26 4.09-28.58 4.09-44.93 0-16.32-4.09-32.66-12.29-44.91-20.47-32.66-32.73-53.09-98.19-57.17-147.28-4.08-61.38 8.18-106.38-4.08-106.38-21.3 0-92.47 28.18-121.32 48.93-.05.05-.09.05-.14.09-11.7 8.38-12.46 10-12.46 10-.58.58-1.06 1.17-1.37 1.71-7.53 12.87-7.02 58.63-3.54 86.56 12.26 61.37 44.93 130.93 93.92 163.66 130.67 90 359.34-73.64 383.83-90.02 36.74-32.73 61.25-77.73 69.41-110.46 12.27-40.91 32.67-110.47 32.67-110.47h122.51s-49.02 184.11-61.26 229.11c-12.24 36.82-20.42 98.2 12.24 94.11 122.51 0 171.53-45 175.61-49.09 4.08-4.09 4.08-12.29 0-16.38-8.16-4.09-36.75-32.73-20.43-73.64Z"/></svg>