<svg xmlns="http://www.w3.org/2000/svg" version="1.2" viewBox="0 0 1503 610"><path fill="#003867" fill-rule="evenodd" d="M200.26 609.59C77.7 609.59.67 573.17.67 519.95c0-75.98 121.5-115.54 264.37-115.54 59.17 0 123.6 7.35 191.53 18.55 26.62-26.96 52.88-55.67 78.09-83.68 50.42-56.02 124.66-136.55 186.63-184.17C838.95 65.13 989.17 0 1147.79 0c197.14 0 355.06 66.53 355.06 165.97 0 57.07-56.03 106.44-156.17 110.29l-3.15-18.21c21.01-9.8 46.92-27.31 46.92-81.23 0-70.73-79.49-141.1-225.5-141.1-140.42 0-220.6 65.82-310.95 159.66-47.27 49.02-98.04 109.94-144.26 157.56-34.67 35.36-71.78 67.92-110.3 96.98 158.27 31.87 325.65 68.98 480.42 68.98 159.32 0 231.8-41.31 268.92-75.63l10.15 14.71c-39.91 81.93-160.72 151.61-315.14 151.61-197.84 0-374.32-55.68-529.09-102.24-108.2 64.77-220.25 102.24-314.44 102.24Zm201.69-134.81c-68.63-18.2-132.36-30.81-191.54-30.81-62.33 0-111.7 26.61-111.7 67.93 0 38.86 36.77 61.97 102.25 61.97 67.23 0 135.51-41.66 200.99-99.09Z"/></svg>