<svg xmlns="http://www.w3.org/2000/svg" version="1.2" viewBox="0 0 1602 1604"><path fill="#cf0a2c" d="M1107.4 61c97.2 40.2 185.5 99.3 259.9 173.8 74.4 74.4 133.4 162.8 173.7 260.2 40.3 97.3 61 201.6 61 306.9 0 324.3-195.1 616.7-494.3 740.8C808.5 1666.9 464 1598.3 235 1369 5.9 1139.7-62.7 794.9 61.2 495.2 185 195.6 477 .1 800.8 0c105.2 0 209.4 20.7 306.6 61z"/><path fill="#fff" d="M1352.9 1172.4c-64.4 96.8-147.1 147.9-238.2 147.9q-16.3-.5-32.5-2.7-16.1-2.1-32-6-15.8-3.8-31.2-9.3-15.4-5.4-30.1-12.5c-11.9-5.5-23.3-11.9-34.2-19.3-10.9-7.3-21.2-15.4-30.9-24.4-9.6-8.9-18.5-18.5-26.6-28.8-8.2-10.3-15.5-21.3-21.9-32.7-6.6-10.7-12.2-21.9-16.9-33.5-4.6-11.7-8.3-23.7-10.8-36-2.6-12.2-4.1-24.7-4.6-37.2-.4-12.5.2-25.1 1.9-37.5q5.7-20.2 11.9-40.2 6.3-20.1 13.2-39.9 6.9-19.8 14.4-39.4 7.4-19.6 15.5-39c63.8-165.2 151-391.2 75.6-501.6-31.6-46.6-89-70-174.7-69.7-85.6.3-144.3 23.1-174.6 69.7-76.3 110.4 11.8 336.4 75.6 501.9q7.9 19.2 15.3 38.7 7.4 19.4 14.1 39.1 6.8 19.7 13 39.6 6.1 19.8 11.7 39.9c1.7 12.4 2.3 24.9 1.8 37.4-.4 12.5-2 24.9-4.6 37.2-2.5 12.2-6.2 24.2-10.8 35.8-4.6 11.6-10.3 22.8-16.8 33.5-6.4 11.4-13.8 22.3-21.9 32.6-8.1 10.3-17.1 19.9-26.7 28.8-9.6 8.9-19.9 17-30.8 24.3-10.9 7.3-22.3 13.7-34.2 19.2q-14.7 7.1-30.1 12.5-15.4 5.5-31.2 9.3-15.9 3.9-32 6-16.2 2.2-32.5 2.6c-91.1 0-172.9-51.1-235.5-147.2l-7.6-13.4q16 8.6 32.8 15.6 16.8 6.9 34.2 12 17.5 5.2 35.3 8.5 17.9 3.3 36 4.7 9.6-.1 19.2-1.6 9.5-1.5 18.7-4.4 9.2-3 17.8-7.3 8.7-4.3 16.6-9.8c129.7-86.4 85.4-190.2-3-350.5q-15.1-24.6-28.6-50.2-13.4-25.5-25.1-51.9-11.7-26.4-21.6-53.6-9.9-27.1-18-54.8c-18.9-77.9-35.6-191.3 31.9-277.1 9.4-10.9 19.5-21.1 30.4-30.5 10.8-9.4 22.3-18 34.4-25.7 12.1-7.7 24.8-14.5 37.9-20.4 13.1-5.9 26.6-10.8 40.4-14.7q30.6-9 61.9-15.8 31.2-6.7 62.9-11.1 31.6-4.4 63.5-6.4t63.8-1.7h33.8q31.9-.3 63.8 1.7t63.6 6.4q31.6 4.4 62.8 11.1 31.3 6.8 61.9 15.8c13.8 3.9 27.3 8.8 40.4 14.7 13.1 5.9 25.8 12.7 37.9 20.4 12.1 7.7 23.6 16.3 34.4 25.7 10.9 9.4 21 19.6 30.4 30.5 67.5 85.8 50.8 199.2 32.2 277.1q-8.2 27.7-18.3 54.9-10 27.1-21.8 53.5t-25.4 51.9q-13.5 25.6-28.7 50.2c-88.4 160.6-132.7 264.1-3 350.5q7.9 5.5 16.6 9.8 8.6 4.3 17.8 7.2 9.2 3 18.7 4.5 9.6 1.5 19.2 1.6 18.3-1.4 36.3-4.6 18-3.3 35.6-8.4 17.6-5.2 34.5-12.1 16.9-7 33.1-15.7z"/></svg>