<svg xmlns="http://www.w3.org/2000/svg" version="1.2" viewBox="0 0 1582 1498"><defs><clipPath id="a" clipPathUnits="userSpaceOnUse"><path d="M-.36-6.65h6475.7v1508.23H-.36z"/></clipPath></defs><g clip-path="url(#a)"><path fill="#fff" d="M1568.9 847c-50.9 363.9-380.6 644.8-780.1 644.8-434.7 0-787.1-332.6-787.1-742.9C1.7 338.6 354.1 6 788.8 6c80 0 157.1 11.4 229.8 32.3z"/><path fill="#ee2223" fill-rule="evenodd" d="M1581.4 808.3c-2.9 89.3-16.7 108.1-43.6 170.1l-.1 2.4s-262.9-417-403-636.9c-19.5-30.5-77.9-95-142.8-2.7-59 83.9-134.3 189.8-134.3 189.8l477.8 755.1c-145.1 135.3-341.1 215.5-560.6 211.6-226.3-3.9-424.7-94.2-565.8-242.2 0 0 204.2-282.4 206.4-285.6 34.7-52.5-11-104.4-11-104.4L252.2 627.2 27.6 942.4C9 876.5-.4 807.1.9 735.6 8.1 322.3 366.3-6.6 800.9.9c120.5 2.1 214.2 25.9 315.5 73.7zM600.1 341.8c-19.5-30.5-77.9-95-142.8-2.6-59 83.9-134.3 189.7-134.3 189.7l404.7 636.9s57.3 122.2 135.1 16.4c13-17.7 140.2-203.4 140.2-203.4s-262.8-417.1-402.9-637z"/></g></svg>