<svg xmlns="http://www.w3.org/2000/svg" version="1.2" viewBox="0 0 1667 1046"><path fill="#e51636" d="M598.57 848.74c-25.99 23.6-63.53 31.46-87.03 34.47-47.9 5.98-97.43-9.92-129.03-48.03-25.96-31.13-39.27-71.45-64.61-103.69-40.03-51.02-104.01-84.44-169.92-72.63C17.69 682.51-41.42 834.49 32.23 939.93c105.29 150.67 342.05 124.58 463.56 20.2 37.84-32.46 73.17-68.57 102.78-111.39"/><path fill="#472380" d="M1450.72 785.46c-97.94-107.45-128.58-286.12-134.61-404.87-5.19-102.6.35-280.28 81.16-332C1370.22 14.57 1316.86.87 1276.31.87c-91.11 0-135.03 60.71-166.19 104.37-10.29 14.42-163.5 225.88-163.5 225.88S817.75 131.66 801.91 107.7C780.02 74.64 739.04 13.89 667 3.37c-31.01-4.53-111.48-8.65-155.28 51.49 75.49 60.43 73.61 214.33 57.22 319.4-49.18 315.38-183.31 344.43-183.31 344.43 68.7 185.64 245.65 112.29 295.65-35.72 32.38-96.21 53.29-217.99 58.11-318.98L933.58 662s219.87-297.09 219.87-296.82c-36.21 525.4 144.14 674.34 301.86 674.34 157.84 0 211.56-144.42 211.56-144.42-85.35-5.16-160.05-48.1-216.15-109.64"/></svg>