<svg xmlns="http://www.w3.org/2000/svg" version="1.2" viewBox="0 0 1555 1231"><defs><clipPath id="a" clipPathUnits="userSpaceOnUse"><path d="M.41-.21v1232.25h4463.55V-.21"/></clipPath><clipPath id="b" clipPathUnits="userSpaceOnUse"><path d="M.79.79h4462.25v1230.14H.79V.79Z"/></clipPath><clipPath id="c" clipPathUnits="userSpaceOnUse"><path d="M-1834.59-1655.08h23401.03v30294.54H-1834.59V-1655.08Z"/></clipPath></defs><g clip-path="url(#a)"><g clip-path="url(#b)"><g fill="#018dd6" clip-path="url(#c)"><path d="m1109.2 747.82-.04 210.31h191.92V574.17c-55.6 57.37-119.72 115.78-191.88 173.65Z"/><path d="M1301.08 574.17c211.33-218.11 298.86-420.84 230.72-518.42-71.12-101.9-292.1-60.62-578.53 90.77-12.81 6.28-24.16 12.93-32.54 18.71-13.84 9.6-5.77 16.6 4.44 12.89 10.47-3.79 22.4-8.38 35.86-15 214.7-101.86 382.18-120.14 447.64-49.03 99.76 108.28-104.54 463.17-458.3 725.69-47.23 35.04-120.11 86.33-167.56 114.83-3.21 1.99-6.38 3.94-9.48 5.93-12.54 8.22-23.71 15.87-32.5 22.76-8.57 6.65-6.92 17.25 8.52 10.59 9.41-4.02 20.84-10.1 33-17.56 2.76-1.68 5.47-3.21 8.34-4.97 53.34-32.4 132.53-87.1 186.63-124.89 46.54-32.51 90.51-65.52 131.88-98.65 72.16-57.87 136.28-116.32 191.88-173.65Z"/><path d="M359.03 1232.04h191.91V1033.1c52.46-31.02 105.57-65.03 157.77-100.64 11.74-8.07 22.14-16.1 29.67-22.99 12.43-11.36 3.44-17.21-6.16-12.16-9.86 5.2-21.52 12.24-34.14 20.27-296.45 189.69-496.59 247.56-570.5 147.19-64.2-87.14 41.03-255.59 231.45-445.85v441.6c54.03-18.36 117.89-47.62 191.87-88.78l-.03-409.7 42.21 89.85c46.27 99.22 130.23 158.55 236.99 158.55 106.72 0 190.69-59.33 236.96-158.55l42.21-89.85-.04 104.54c68.68-66.63 127.29-133.15 171.76-197.49 5.55-7.96 5.05-14.65 2.03-21.99-29.6-61.78-92.57-104.35-165.76-104.35-72.38 0-135.24 42-165.37 102.74l-80.3 170.41c-8.3 16.6-23.59 25.82-41.49 25.82-17.85 0-33.23-9.22-41.52-25.82l-80.3-170.41c-15.3-30.87-39.08-56.88-68.25-75.01 58.73-46.63 115.82-88.28 172.02-122.4 12.78-7.77 23.25-15.53 32.09-22.3 8.67-6.62 7.07-17.21-8.42-10.71-9.4 3.94-21.6 9.94-33.8 17.36-57.43 34.81-116.12 70.42-172.26 108.79-6.8 4.63-13.53 9.29-20.26 13.96-20.65-8.03-43.06-12.43-66.5-12.43-101.71 0-183.84 82.2-183.84 183.95v25.32C87.93 793.84-54.39 1033.29 19.98 1139.89c54.61 78.19 184.08 60.13 339.05-7.23v99.38Z"/></g></g></g></svg>