<svg xmlns="http://www.w3.org/2000/svg" version="1.2" viewBox="0 0 1596 579"><path fill="#7bb1db" d="M957.1 0v577.6l.3.5h-32.7L805.4 386 686 578.1h-32.4L653.5 0H686l119.4 192.2L924.7 0h32.4"/><path fill="#958437" d="m653.5 0 .1 578.1h-177l176.7-289L476.6 0h176.9"/><path fill="#739833" d="M1134.2 0 957.4 289.1l176.7 289H957.4l-.3-.5V0h177.1"/><path fill="#c9d200" fill-rule="evenodd" d="M1386.7 0c168.2 0 208.9 84.4 208.9 197.6v67.8c0 86.1-37.5 184.9-162.8 184.9h-298.7v128.2l-176.8-289L1134.1 0zm43.5 204.8c0-39.1-18.8-61.3-72.3-61.3h-223.6v163.4h238.4c41.5 0 57.5-39.4 57.5-73.7z"/><path fill="#ffb500" d="m653.3 289.1-176.7 289-299.5-349.3.1 349.3H0V0h177l299.5 349.3V0h.1l176.7 289.1"/></svg>