<svg xmlns="http://www.w3.org/2000/svg" version="1.2" viewBox="0 0 1527 774"><path fill="#3a4d54" fill-rule="evenodd" d="M1526.1 760.4c0 6.1-5.2 11.3-11.3 11.3l-120.9-1.2c-6.1 0-11.3-4.9-11.3-11.3V353.6c-1.2-64.6-25.5-134.4-57.3-164.2-37.9-36.8-79.9-59.4-143.5-61.4-85.1-2-142.4 60.5-142.4 60.5-35.9 35.9-57.3 96.4-57.3 161.9-1.2 85.1 0 342.2 0 410.9 0 6.3-5.2 11.3-11.3 11.3h-121c-6.1 0-11.3-5-11.3-11.3 1.2-67.5 1.2-426.3 1.2-430.3C838.5 271.3 851 174 941 86.9 1001.5 29.6 1082.5 0 1181.8 0c99.5 0 180.2 29.6 240.7 88.1 92.3 88 102.5 183.2 101.6 243.8zM769.9 388.6c0 75.5-16.5 141.3-49.2 199.8-31.8 58.2-77.8 103.3-135.4 136q-86 49.3-199.7 49.3-113.7 0-199.7-49.3c-57.6-32.7-103.6-77.8-136.3-136Q.4 500.6.4 388.6c0-77.1 16.5-143.6 49.2-202.1 33.9-57.4 78.7-103.4 136.3-136.4q86-49 199.7-49c75 0 141.5 16.3 198.8 49 58.5 33 103.6 79 137.2 136.4 33 58.5 49.2 125 48.3 202.1zm-135.4-1.2c0-50.1-11.3-96.4-31.6-135.2-20.5-39.1-50.3-69.8-87.1-92.4q-57-33.9-129-33.9-73.8 0-129.1 33.9c-37 21.7-66.9 53.3-88.3 92.4-21.4 38.8-31.8 84-31.8 135.2 0 51.3 10.4 96.4 31.8 135.2 21.4 39.1 51.3 69.8 88.3 92.4q56.7 33.9 129.1 33.9 73.8 0 129-33.9c36.8-22.6 66.6-53.3 87.1-92.4 20.3-38.8 30.7-83.9 31.6-135.2z"/></svg>