<svg xmlns="http://www.w3.org/2000/svg" version="1.2" viewBox="0 0 1526 1484"><path fill="#009d57" fill-rule="evenodd" d="M1248.1 761.5c0 450.7-257.2 721.5-636.1 721.5C257.9 1483 .6 1210.2.6 778.1.6 368.8 261.4 52.4 629.7 52.4c366.5 0 618.4 289.5 618.4 709.1zM615.6 202.3c-216.7 0-333 183-333 528.2 0 252.2 75.7 602.7 362.9 602.7 230.8 0 320.7-209.9 320.7-544.8 0-353.5-132.1-586.1-350.6-586.1z"/><path fill="#009d57" fill-rule="evenodd" d="M868.3 780.6c11.5 13.6 18.4 31 18.4 49.9 0 28.3-15.5 53.1-38.7 67.2-7.4 12.1-20.5 20.2-35.6 20.2h-2.2c-1.4.1-2.8 0-4.2.1-37.1 2.2-74.4-2-106.3-24 .7 26.4 2.5 52.5-2.8 79.7-5.8 30.3-16.1 60.7-36.7 82.9-.7 1.3-1.3 2.6-2 3.7-10 20.7-34.9 29.4-55.7 19.5-20.8-10-29.5-34.8-19.5-55.7v2.6c2.7-9.7 7.9-17.2 14.3-23.7-.8 1.1-1.4 2.3-1.6 3.7.8-1.4 1.5-2.8 2.3-4.2 1.7-1.7 3.4-3.4 5.2-4.9-1.7 1.2-3.3 2.3-4.7 3.8 5.2-9.7 9.3-19.9 14-29.9-.2.9-.4 1.7-.5 2.6 1.2-5.1 3.2-9.9 3.6-14.9 1.6-23.6 1.1-47 .8-70.5-6.3.5-12.6.4-18.8.8 1.6-.7 3.1-1.2 4.7-1.9-10.6 4.2-22 5.7-33.1 8.2-5.3 4.3-11.1 8.1-17.8 10.7-5.1 3.3-10.5 5.8-16.1 7.4l-.5.5c-7.7 7.4-17.3 11.2-27.2 11.6-18.1 8.8-40.1 7.4-56.5-4.7-1.5-1-2.7-2.2-4.1-3.4-32.2-10.8-55.3-40.2-55.3-74.9 0-21 8.5-40 22.3-54.2-16.2-14.5-26.5-35.2-26.5-58.1 0-43.9 37-79.5 82.7-79.5 18.9 0 36.2 6.1 50.1 16.4.5-.1 1-.1 1.5-.2-1.6-2.9-3.2-6-4.7-9-16.8-14.6-27.3-35.5-27.3-58.9 0-43.9 37-79.4 82.6-79.4 23.4 0 44.5 9.4 59.5 24.4 14.9-13.8 35.1-22.4 57.4-22.4 45.6 0 82.6 35.6 82.6 79.5 0 13.6-3.6 26.3-9.8 37.4-.9 10-4 19.4-8.1 28.5 13.9-10.2 31.2-16.3 50-16.3 45.6 0 82.7 35.6 82.7 79.5 0 18.9-6.9 36.2-18.4 49.9zm-313 123c-1.4 1-2.7 2-4.1 3q.1-.1.2-.1 2-1.4 3.9-2.9zm91.8-287.8c-1.1-.8-2.4-1.5-3.6-2.3 1.2 6.6 2.1 13.2 2.7 19.9.4-5.8.8-11.8.9-17.6zm16.2 431c-4 4.1-8.1 8.2-12.7 11.8 5.7-3 9.7-7 12.7-11.8z"/><path fill="#009d57" d="M594.3 986.2q-.4.4-.7.8c.4-.7.8-1.4 1.4-2-.3.5-.4.8-.7 1.2zm929.1-830.3c-19.5 148.6-173.6 248.5-173.6 248.5l-49.1-81.6 49.1-36.8c-35.3-38-56.1-67.3-68.2-89.7-1.2-2.1-2.4-4.3-3.5-6.4-.1-.3-.3-.5-.4-.9-1.4-2.8-2.9-5.7-4-8.7-6.6-15-8.4-25.6-8.6-32.6-.8-5.6-1.3-11.1-1.3-16.7 0-72.1 58.7-130.6 131.1-130.6 72.3 0 130.9 58.5 130.9 130.6 0 8.5-.9 16.8-2.4 24.9z"/></svg>