<svg xmlns="http://www.w3.org/2000/svg" version="1.2" viewBox="0 0 1361 1567"><path fill="#3253dc" fill-rule="evenodd" d="M1360.2 682.9c0 251.4-125.4 461.3-313.2 579.8l95.3 249.2c13.4 36.1-7.6 54.4-35.6 54.4H989.4c-27.4 0-42.5-12.9-50-33.9l-74.3-190c-58.7 16.1-120.6 24.7-184.6 24.7C304.3 1367.1.8 1075.9.8 683.9.8 293.6 304.3.8 680.5.8c376.2 0 679.7 292.8 679.7 682.1zm-208.8 1c0-282.6-195.9-499-470.9-499s-470.9 216.4-470.9 499c0 283.2 195.9 499.6 470.9 499.6 41.4 0 81.3-4.3 118.4-14.5l-113-292.3c-12.9-36.1 8.6-54.4 37.1-54.4h112c32.3 0 47.9 17.2 55.4 35.5l85.6 223.4c108.7-90.4 175.4-232 175.4-397.3z"/></svg>