<svg xmlns="http://www.w3.org/2000/svg" version="1.2" viewBox="0 0 1559 1526"><path fill="#275aa4" fill-rule="evenodd" d="M332.9.2h754.3c285.7-3.7 471.3 104.7 471.3 399.5 0 207.6-149.8 380.3-362.9 410.6v3.6C1326.1 852.5 1360 963.6 1360 1084c0 67.9-11.9 170.8-11.9 264.5 0 67.9 4.6 132.2 23 177.2h-339c-9.2-36.7-15.7-68.8-15.7-102.8 0-102 17.5-206.7 17.5-309.6 0-146.9-90-183.6-227.8-183.6H479l-130.5 596H.3zM532.3 690h320.6c183.8-1.8 359.3-69.8 359.3-241.6 0-164.4-119.5-187.3-257.3-187.3H625.1z"/></svg>