<svg xmlns="http://www.w3.org/2000/svg" version="1.2" viewBox="0 0 1365 1566"><path fill="#173d6e" d="M0 32.9 1.8.3H759c63.5.6 127.1 5.8 189.4 18.3 95.8 19.1 191 57.6 260.9 127.7 62.3 61.5 98.4 145.7 110.9 231.5 8.6 45.3 1.8 91.6-6.9 136.3-14.6 69-43.8 138.1-97.4 185.8-16.3 15.3-36.4 25.5-54.7 38.1-97.9 70-195.9 139.6-293.8 209.5 165.7 205.9 331.4 411.7 496.8 617.8-129.9 0-259.7 0-389.6-.1-181.2-236.7-362.5-473.3-543.7-710.1C589.9 765.2 748.5 674.8 908 586c26.4-15.4 43.3-42.9 53.8-70.9 15.1-39.2 12.2-82.8 2.3-122.8-7.3-29.4-30.4-53.2-58.9-62.7-48.4-16.8-100.5-16.7-151.1-18.5-137.6-1.5-275.1-.5-412.6-.8-.1 418.4 0 836.7-.1 1255-113.8-.2-227.6.3-341.4-.3z"/></svg>