<svg xmlns="http://www.w3.org/2000/svg" version="1.2" viewBox="0 0 1332 1666"><path fill="#0081c6" d="M329.8 1496.6c0 90.7-74.2 165-164.9 165-90.6 0-164.8-74.3-164.8-165V663.9C.1 573.2 74.3 499 164.9 499c90.7 0 164.9 74.2 164.9 164.9z"/><path fill="#0081c6" d="M972.7 470.1c16.4-16.5 24.7-37.1 24.7-57.7 0-45.4-37.1-82.5-82.4-82.5H164.9C74.3 329.9.1 255.7.1 165S74.3.1 164.9.1H915c230.7 0 416.2 185.5 416.2 416.4 0 123.7-53.6 235-140.1 313.3l-399.8 399.9q-37.1 30.9-37.1 86.6c0 66 53.6 119.6 119.6 119.6h288.4c90.7 0 164.9 74.2 164.9 164.9s-74.2 164.9-164.9 164.9H873.8c-251.4 0-453.4-206.2-453.4-457.6 0-132 61.9-247.4 136-321.6z"/></svg>