<svg xmlns="http://www.w3.org/2000/svg" version="1.2" viewBox="0 0 1562 1468"><path fill="#5a2a82" d="M470.6 169.1c0-45-22.5-78.9-122.3-78.9S226 124.1 226 169.1v122.2c-.1 10 .9 20 3 29.7 2.1 9.8 5.3 19.2 9.5 28.3 4.2 9 9.5 17.5 15.6 25.4 6.1 7.8 13.1 15 20.8 21.3l336.6 290.9c11.4 8.2 21.8 17.6 31.1 28.1s17.4 21.9 24.1 34.2c6.8 12.3 12.1 25.3 16 38.7 3.9 13.4 6.3 27.3 7.1 41.3V1013c0 109.5-128.9 171.1-342.4 171.1C112.8 1182.9 0 1129.8 0 1012.3V853.6h212.8v153c0 55 41.8 87.1 135.3 87.1 87.1 0 128.9-32.1 128.9-87.1V843.1c0-40.3-16.1-70.9-61.4-111.2L103.2 459.5C45.3 410.6 13 371 13 311.4V171.3C13 56.9 132.3.2 348.1.2c239 .2 335.4 56.7 335.4 163.1v148.1H470.6zM1348.3 7.8h213.1l-466.2 1460.1H882.1L1348.3 7.8zm-336.1 906.9L724.1 10.2h213l181.5 570.3-106.4 334.2z"/></svg>