<svg xmlns="http://www.w3.org/2000/svg" version="1.2" viewBox="0 0 1552 1552"><path fill="#e20074" d="M0 0h1552v1552H0V0Z"/><g fill="#fff"><path d="M322.34 955.08V731.23h223.84v223.85H322.34Zm683.48 0V731.23h223.84v223.85h-223.84Z"/><path d="M1217.72 223.85H334.28l-11.94 390.98 59.69 8.95c11.94-116.4 41.79-199.96 89.54-256.67 50.74-56.71 122.37-89.54 214.89-92.53v814.8c0 71.64-8.95 116.4-29.84 137.3-17.91 17.9-47.76 29.84-89.54 32.83-11.94 0-32.83 2.98-62.68 2.98v62.68h546.18v-62.68c-29.84 0-50.73 0-62.67-2.98-41.79-2.99-71.63-14.93-89.54-32.83-20.89-20.9-29.85-68.65-29.85-137.3V277.57c92.53 2.98 164.16 32.83 214.9 92.52 50.73 56.71 80.58 140.28 89.53 256.68l59.7-8.95-14.93-393.97Z"/></g></svg>