<svg xmlns="http://www.w3.org/2000/svg" version="1.2" viewBox="0 0 1508 1589"><path fill="#0099fa" d="M875.7.4v893.3H631.6V247.8H378.1V.4z"/><path fill="#0099fa" d="M514.3 1285.4v264.4C215.4 1449.9 0 1168.2 0 836.3c0-167.4 54.8-321.8 147.4-446.7h362.1v.1C351.4 476 244.1 643.6 244.1 836.3c0 194.5 109.5 363.5 270.2 449.1zm993.1-449.1c0 415.5-337.5 752.3-753.7 752.3-41.5 0-82.1-3.4-121.8-9.8v-248.5c39 9.5 79.8 14.6 121.8 14.6 281.4 0 509.7-227.7 509.7-508.6 0-192.7-107.4-360.3-265.6-446.7V124.5c296.4 101.2 509.6 381.5 509.6 711.8z"/></svg>