<svg xmlns="http://www.w3.org/2000/svg" version="1.2" viewBox="0 0 1514 1472"><path fill="#c00" fill-rule="evenodd" d="M1510.25 630.84v293.55c-41.6 10.19-166.61 41.89-281.22 125.61-83.27 62.78-156.28 157.04-156.28 251.3 0 62.99 10.47 104.81 31.27 146.71 0 0-37.36 26.25-114.54 20.95-94.1-6.66-197.88-83.94-260.35-199.08-83.35-146.7-124.94-324.83-218.69-324.83-93.88 0-93.88 95.26-166.75 94.41-95.15-.85-123.66-127.46-156.21-199.29C140.15 736 10.4 714.63 0 567.99h419.75V2.34h350.9v278.47h94.81l-36.93 184.21H727.22l-33.89 169.85h101.45l-49.31 252.29c-3.68 19.82-8.92 40.41-13.3 60.86-27.52 133.76 78.53 134.89 208.99 134.89h137.95l36.09-180.74c-78.96 0-103.51 2.83-94.81-53.58 1.28-8.63 3.4-17.62 6.23-30.14l36.51-183.79h105.41l33.75-169.78h-105.35l36.93-184.21h293.11v182.51c0 123.07 83.27 167.66 83.27 167.66ZM807.09 901.67l123.1-621.28h141.99L948.94 901.67H807.09Zm275.92-680.66h-142l27.17-137.08h142.13l-27.3 137.08Z"/></svg>