<svg xmlns="http://www.w3.org/2000/svg" version="1.2" viewBox="0 0 1540 1509"><path fill="#00358e" d="M110.9 362.9c10.1-16.8 30.3-26.9 50.4-26.9h238.6c10.1 0 13.5 10.1 10.1 16.8l-63.8 144.5c-3.4 3.3-6.8 6.7-10.1 6.7H60.5c-10.1 0-13.4-10.1-10.1-16.8 16.8-47 37-87.4 60.5-124.3zM322.6 168c-10 0-16.8-16.8-6.7-23.5C443.6 53.8 601.6 0 773 0c171.4 0 326 53.8 453.7 147.8 10.1 6.8 3.4 20.2-6.7 20.2zM531 1347.4c3.3-3.4 6.7-6.8 10.1-6.8l675.5 3.4c10.1 0 16.8 13.4 6.7 20.2-127.7 90.7-285.7 144.4-453.7 144.4q-146.2 0-272.2-50.4c-6.8-3.3-10.1-10-6.8-16.8zm84.1-191.5 63.8-144.5c3.4-3.3 6.7-6.7 10.1-6.7l789.8 3.4c10.1 0 13.4 10.1 10.1 16.8-16.8 43.7-37 84-60.5 124.3-10.1 16.8-30.3 26.9-50.4 26.9l-749.5-3.4c-10.1 0-16.8-10.1-13.4-16.8zm920.8-473.7c3.4 23.5 3.4 47 3.4 73.9 0 23.5 0 50.4-3.4 73.9 0 6.7-6.7 10.1-13.4 10.1L773 836.7c-10.1 0-13.4-10.1-10.1-16.8l40.4-94.1c16.8-33.6 50.4-57.1 87.4-57.1h631.8c6.7 3.4 13.4 10.1 13.4 13.5z"/><path fill="#2a7de1" d="M1478.8 504H779.7c-36.9 0-70.6 20.2-84 53.8L386.5 1260c-10.1 23.5-30.2 37-53.8 37-20.1 0-43.7-13.5-53.7-37-63.9-144.5-161.4-369.6-181.5-413.3 0-3.3-6.8-6.7-10.1-6.7H16.8c-6.7 0-13.4-3.4-13.4-10.1C0 803 0 779.5 0 756c0-26.9 0-50.4 3.4-77.3 3.3-6.7 6.7-10.1 13.4-10.1h134.4c37 0 70.6 20.2 84.1 53.8L326 930.7c3.4 3.4 3.4 3.4 6.7 3.4 3.4 0 6.7 0 6.7-3.4l238.7-540.9c16.8-33.6 47-53.8 84-53.8H1378c20.1 0 40.3 10.1 50.4 26.9 23.5 40.3 43.7 80.6 60.5 124.3 3.3 6.7-3.4 16.8-10.1 16.8z"/></svg>