<svg xmlns="http://www.w3.org/2000/svg" version="1.2" viewBox="0 0 1549 1548"><g fill-rule="evenodd"><path fill="#43beac" d="M1270.5 882.8c1.9-36.3 2.9-73.3 2.9-109.3s-1-72.9-2.9-109.2c37.3 1.9 74 4.1 109.7 6.3 2.2 34.4 3.4 68.8 3.4 102.9 0 34.1-1.2 68.6-3.4 103-35.4 2.2-72.4 4.4-109.7 6.3zm-248.6 479.9c4.7-34.7 8.8-70.7 12.6-107.4 57.8-7.8 114.4-17.9 168.7-30.9-9.1 36.3-19.9 72-31.3 105.8-48.3 13.2-98.5 24-150 32.5zM881 1547.1c4.4-48 8.5-99.5 12-153.1 36.9-2.9 73.9-6.7 109.9-12-6.9 50.8-14.8 99.4-23.7 145.2-32.2 8.8-65.4 15.5-98.2 19.9zM278.4 882.8c-37.2-1.9-74.2-4.1-109.6-6.3-2.2-34.4-3.5-68.9-3.5-103 0-34.1 1.3-68.5 3.5-102.9 35.7-2.2 72.4-4.4 109.6-6.3-1.9 36.3-2.8 73.2-2.8 109.2s.9 73 2.8 109.3zm496.1 157.9c-39.2 0-78.7-.4-117.9-1.3-1.2-42.3-1.9-85.6-2.5-129.1 40.4.3 80.9.6 120.4.6 39.8 0 80.2-.3 120.4-.6-.7 43.5-1.6 86.8-2.6 129.1-39.1.9-78.6 1.3-117.8 1.3zm259.7-544.4c-41.4-1.9-83.7-3.8-126.1-4.7-1.9-66.9-4.1-132.9-7.2-196.4 40.1 2.5 79.9 6 118.8 11.1 6.3 61.5 11 125.6 14.5 190zM345.7 322.4c9.2-36.3 19.9-72 31.3-105.8 48-13 98.6-24 149.8-32.2-4.8 34.7-8.9 70.7-12.7 107.3-57.8 7.9-114.3 18.3-168.4 30.7zm549.2 314.4c-39.9-.3-80.3-.6-120.4-.6-40.1 0-80.6.3-120.4.6.6-43.5 1.6-86.8 2.5-129.1 39.2-1 78.7-1.3 117.9-1.3s78.7.3 117.8 1.3c1 42.3 1.9 85.6 2.6 129.1zm-658.8 646q-44.5-18-85.3-38.8c-26.5-35.1-49.9-72.3-70.1-110.8 38.2 18.3 79.6 35 123.2 50.2 9.5 33.7 20.5 67.2 32.2 99.4zm1232.2-868.9c-38.2-18.3-79.6-35-123.2-50.2q-14.2-51.1-32.2-99.4 44.5 18 85.3 38.8c26.2 35 49.9 72.3 70.1 110.8z"/><path fill="#56aee1" d="M1383.3 1001.8c5.4-36.3 9.2-72.9 12-109.9 53.7-3.4 104.9-7.5 153.3-12-4.5 33.2-11.1 66-19.9 98.2-45.5 8.6-94.5 16.8-145.4 23.7zm-158 200.5c13-54.3 23.4-110.8 31-168.6 36.7-3.8 72.7-8.2 107.4-12.6-8.2 51.1-18.9 101.3-32.2 149.6-33.8 11.4-69.5 22.1-106.2 31.6zm-324.4 49.6c3.1-63.2 5.3-129.2 7.2-196.4 42.4-1 84.7-2.5 126.1-4.7-3.5 64.7-8.5 128.5-14.5 190-38.9 4.8-78.7 8.6-118.8 11.1zm-403.8-218.8c-64.8-3.5-128.6-8.6-190.2-14.5-4.8-38.9-8.6-78.7-11.1-118.8 62.9 3.2 128.9 5.4 196.5 7.3 1.3 42.6 2.9 84.9 4.8 126zm170.9 514c-32.9-4.4-66-11.1-98.3-19.9-8.5-45.8-16.7-94.4-23.7-145.2 36.1 5.3 73 9.1 110 12 3.8 53.6 7.6 105.1 12 153.1zm696-1020.8c-34.7-4.7-70.7-8.8-107.4-12.6-7.9-57.8-18-114.3-30.9-168.6 36.3 9.2 72 19.9 105.8 31.3 13.3 48.3 24 98.5 32.5 149.9zm-361.1-361.2c-36-5.3-73-9.1-109.9-12C889.5 99.5 885.4 48 881 0c32.8 4.4 66 11.1 98.2 19.9 8.5 45.8 16.8 94.4 23.7 145.2zM.4 667.1c4.4-33.1 11.1-65.9 19.9-98.2 45.8-8.5 94.5-16.7 145.3-23.6-5.3 36-9.1 72.9-12 109.8-53.7 3.8-105.2 7.6-153.2 12zm295.4-19.8c2.5-40.1 6-79.9 11.1-118.8 61.6-6 125.4-11 190.2-14.5-1.9 41.4-3.8 83.7-4.8 126-66.9 1.6-133 4.1-196.5 7.3zm588-369.5c-36.3-1.9-73-2.8-109.3-2.8-36.4 0-73 .9-109.3 2.8 1.9-37.2 4.1-74.2 6.3-109.5 34.4-2.2 68.9-3.5 103-3.5 34.1 0 68.5 1.3 103 3.5 2.2 35.3 4.4 72.3 6.3 109.5zM414.6 1466.9c-38.5-20.2-75.8-43.6-110.9-70.1q-20.8-40.7-38.8-85.3c32.2 12 65.7 22.8 99.5 32.3q22.7 65.3 50.2 123.1zm869.5-1231.4c-32.2-12-65.7-22.7-99.5-32.2-14.9-43.5-31.9-84.9-50.2-123.1 38.5 20.2 75.8 43.6 110.8 70.1 13.6 27.1 26.9 55.9 38.9 85.2z"/><path fill="#91aedb" d="M323.3 1202c-36.6-9.5-72-19.9-105.8-31.3-13.3-48.3-24.1-98.5-32.3-149.6 34.8 4.4 70.8 8.8 107.5 12.6 7.5 57.5 18 114.3 30.6 168.3zm314.4-308.2c-43.3-.6-86.6-1.5-129.3-2.5-.9-39.1-1.2-78.6-1.2-117.8 0-39.1.3-78.6 1.2-117.7 42.7-1.3 86-1.9 129.3-2.6-.3 40.1-.7 80.6-.7 120.3 0 39.8.4 80.2.7 120.3zm136.8 488.5c-34.1 0-68.6-1.3-103-3.5-2.2-35.7-4.4-72.3-6.3-109.6 36.6 1.9 73.3 2.9 109.3 2.9s73-1 109.3-2.9c-1.9 37.3-4.1 74.2-6.3 109.6-34.5 2.2-68.9 3.5-103 3.5zm478.6-735c-63.1-3.2-129.2-5.4-196.5-7.3-.9-42.3-2.5-84.6-4.7-126 64.8 3.5 128.6 8.5 190.2 14.5 4.7 38.9 8.5 78.7 11 118.8zM546 165.1c7-50.8 14.9-99.7 23.7-145.2C602 11.1 634.8 4.4 668 0c-4.4 48-8.5 99.5-12 153.1-37 2.6-73.9 6.7-110 12zm766.9 1117.7c12-32.2 22.7-65.7 32.2-99.4 43.6-14.9 85-31.9 123.2-50.2q-30.3 58.2-70.1 110.8c-27.2 13.9-56 26.8-85.3 38.8zM80.7 413.9q30.3-58.2 70.1-110.8 40.8-20.8 85.3-38.8c-12 32.2-22.7 65.6-32.2 99.4q-65.4 22.8-123.2 50.2z"/><path fill="#8fc73e" d="M1051.6 1033.4c2.2-41.4 3.8-83.7 4.7-126 67.6-1.9 133.7-4.1 196.5-7.2-2.5 40-6.3 79.8-11 118.7-61.3 6-125.5 10.7-190.2 14.5zM911.3 893.8c.3-40.1.6-80.5.6-120.3 0-40.1-.3-80.2-.6-120.3 43.3.7 86.6 1.6 129.2 2.6 1 39.1 1.3 78.6 1.3 117.7 0 39.2-.3 78.7-1.3 117.8-42.3 1-85.9 1.9-129.2 2.5zm-745.7 108c-50.8-6.9-99.8-14.8-145.3-23.7-8.8-32.2-15.5-65-19.9-98.2 48.3 4.5 99.5 8.6 153.2 12 2.6 37 6.7 73.9 12 109.9zm360.9 360.6c-51.2-8.2-101.5-19-149.8-32.2-11.4-33.8-22.1-69.2-31.3-105.8 54.4 13 110.9 23.4 168.7 30.9 3.8 36.4 8.3 72.7 12.4 107.1zm121.6-110.5c-40.1-2.2-79.9-6-118.8-11.1-6-61.5-11.1-125.3-14.5-190 41.4 1.8 83.7 3.7 126 4.7 1.6 66.9 4.1 132.9 7.3 196.4zm900.5-584.8c-48.4-4.4-99.6-8.5-153.3-12-2.8-36.9-6.6-73.8-12-109.8 50.9 6.9 99.5 14.8 145.4 23.6 8.8 32.3 15.4 65.4 19.9 98.2zM1203.5 323c-54.3-13-110.9-23.4-168.7-30.9-3.8-36.7-7.9-72.7-12.6-107.4 51.2 8.2 101.4 18.9 149.7 32.2 11.4 33.8 22.2 69.5 31.6 106.1zM185.2 525.7c8.2-51.2 19-101.4 32.3-149.7 33.8-11.3 69.5-22.1 105.8-31.2-13 54.3-23.4 110.8-31 168.6-36.3 3.8-72.3 8.2-107.1 12.3zm329.6-29.4c3.4-64.7 8.5-128.5 14.5-190 38.9-4.8 78.7-8.6 118.8-11.1-3.2 63.2-5.4 129.1-7.3 196.4-42.6 1.3-85 2.8-126 4.7zm619.6 970.6c18.3-38.2 35-79.6 50.2-123.1q51.2-14.3 99.5-32.3-18 44.6-38.9 85.3c-35 26.2-72.3 49.9-110.8 70.1zM264.9 235.5q18-44.5 38.8-85.2c35.1-26.5 72.4-49.9 110.9-70.1-18.3 38.2-35.1 79.6-50.2 123.1-33.8 9.5-67.3 20.6-99.5 32.2z"/></g></svg>