<svg xmlns="http://www.w3.org/2000/svg" version="1.2" viewBox="0 0 1464 1655"><path fill="#f69f1a" d="M686.3 1.98c169.1-10.37 340.9 36.14 481.84 130.13 127.79 84.39 230.44 206.59 289.98 347.77 9.29 25.3 6.06 55.16-9.81 77.15-17.25 25.12-49.1 38.62-79.16 34.38-28.1-3.56-53.6-22.7-64.62-48.8-27.69-65.22-66.68-125.6-114.65-177.71-84.67-92.28-197.76-158.41-320.15-185.4-94.41-19.62-193.04-18.94-287.07 2.48-115.15 27.13-221.81 88.95-302.52 175.48-43.71 47.21-82.19 99.83-109.25 158.41-8.13 16.09-12.72 34.33-25.1 47.92-22.9 27.06-63.98 35.97-96.14 21.19-30.57-13.09-51.07-46.06-49.16-79.3.28-20.27 10.87-38.1 18.95-56.06C84.25 313.33 189.32 196.65 318.1 117.97 428.79 49.79 556.48 9.49 686.3 1.98Z"/><path fill="#0067ab" d="M23.6 724.65c8.42-11.73 21.96-20.08 36.69-19.62 41.29.02 82.6-.76 123.86.45 21.87.2 40.83 18.62 43.05 40.15 40.81 168.3 81.82 336.55 122.88 504.82 12.73 55.08 28.4 109.59 37.27 165.5 8.81 49.76 10.5 100.43 18.54 150.31 7.37-55 17-109.71 29.21-163.85 9.98-45.25 23.07-89.71 34.8-134.53 46.91-174.93 93.9-349.86 140.73-524.84 5.12-21.11 25.25-37.41 47.04-37.78 45.52-.74 91.1-.33 136.62-.23 9.18.05 18.49-.86 27.54 1.11 16.75 4.03 31.48 15.94 38.54 31.7 3.23 7.34 4.89 15.23 7.06 22.93 31.58 114.98 62.83 230.06 94.17 345.09 10.37 37.25 19.83 74.78 31.13 111.75 23.58 80 43.48 161.09 59.52 242.93 7.41 35.26 10.46 71.25 18.01 106.48 15.58-116.54 36.14-232.41 61.66-347.19 11.3-52.38 25.3-104.13 36.57-156.52 23.93-107.01 47.42-214.15 71.7-321.08 3.61-15.74 15.64-29.03 30.77-34.5 8.78-3.51 18.41-2.75 27.67-2.73 36.22.1 72.46-.7 108.65.43 15.56-.02 30.11 12.23 32.43 27.64 1.9 11-2.75 21.42-5.42 31.83-77.1 284.62-154.3 569.21-231.1 853.9-5.9 19.65-25.24 34.12-45.72 34.53-63 2.34-126.05.05-189.06 1.06-18.18-.69-34.7-14.43-39.14-32.01-47.06-172.79-93.31-345.8-139.85-518.71-10.67-40.33-22.54-80.38-30.87-121.26-11.2-53.32-19.54-107.29-23.88-161.62-7.44 63.51-17.68 126.74-32.08 189.03-53.32 199.47-106.99 398.84-160.71 598.19-2.67 10.46-4.79 21.89-12.89 29.73-13.62 13.59-33.97 17.02-52.45 17-58.92-1.92-117.91 1.29-176.8-1.41-12.76-.41-25.1-7.29-32.08-17.96-5.25-7.72-6.38-17.18-8.93-25.9-76.52-278.67-152.81-557.4-229.18-836.09-4.89-15.77-5.55-32.36-5.95-48.73Z"/></svg>